<svg xmlns="http://www.w3.org/2000/svg" xmlns:xlink="http://www.w3.org/1999/xlink" width="1080" zoomAndPan="magnify" viewBox="0 0 810 809.999993" height="1080" preserveAspectRatio="xMidYMid meet" version="1.0"><path fill="#ff751f" d="M 326.980469 338.710938 C 326.722656 338.96875 325.621094 339.097656 324.453125 339.035156 C 319.789062 338.644531 306.375 342.207031 305.207031 344.089844 C 304.753906 344.800781 304.558594 344.867188 304.558594 344.21875 C 304.558594 343.570312 304.367188 343.570312 303.589844 344.28125 C 303.070312 344.867188 301.773438 345.449219 300.671875 345.707031 C 299.636719 345.96875 298.726562 346.355469 298.726562 346.613281 C 298.726562 346.875 297.691406 347.585938 296.394531 348.171875 C 295.164062 348.820312 294.320312 349.597656 294.515625 349.921875 C 294.710938 350.308594 294.453125 350.375 293.933594 350.179688 C 293.347656 349.984375 292.894531 350.113281 292.894531 350.503906 C 292.894531 350.890625 292.636719 351.152344 292.246094 351.085938 C 291.40625 350.828125 283.109375 358.410156 283.566406 359.058594 C 283.757812 359.378906 283.371094 359.445312 282.722656 359.1875 C 281.6875 358.796875 281.621094 358.863281 282.527344 359.964844 C 283.046875 360.613281 283.175781 361 282.722656 360.742188 C 281.878906 360.222656 278.835938 362.75 278.511719 364.175781 C 278.316406 365.210938 277.601562 366.183594 275.855469 368.128906 C 275.269531 368.777344 274.945312 369.359375 275.207031 369.359375 C 275.53125 369.359375 275.464844 369.621094 275.074219 369.878906 C 274.105469 370.527344 270.863281 376.8125 270.863281 377.976562 C 270.863281 378.496094 270.605469 379.078125 270.28125 379.210938 C 269.890625 379.273438 269.503906 380.246094 269.308594 381.21875 C 269.113281 382.253906 268.726562 384.003906 268.335938 385.105469 C 268.011719 386.273438 267.6875 387.632812 267.6875 388.152344 C 267.6875 388.671875 267.300781 391.132812 266.910156 393.660156 C 266.199219 398 266.457031 409.277344 267.363281 415.042969 C 267.558594 416.46875 267.753906 418.15625 267.6875 418.800781 C 267.6875 419.386719 267.949219 419.773438 268.273438 419.578125 C 268.660156 419.386719 268.726562 419.578125 268.53125 420.097656 C 268.011719 421.460938 269.503906 426.382812 270.410156 426.382812 C 270.863281 426.382812 270.800781 426.644531 270.214844 427.03125 C 269.375 427.550781 269.375 427.679688 270.34375 427.679688 C 271.058594 427.679688 271.316406 428.003906 271.125 428.652344 C 270.863281 429.171875 271.058594 429.625 271.445312 429.625 C 271.835938 429.625 271.964844 430.078125 271.769531 430.597656 C 271.511719 431.113281 271.835938 431.699219 272.417969 431.957031 C 273.003906 432.152344 273.457031 432.667969 273.457031 433.125 C 273.457031 433.578125 274.753906 436.039062 276.371094 438.566406 C 279.9375 444.398438 286.546875 451.332031 288.035156 450.75 C 288.621094 450.554688 288.941406 450.621094 288.75 450.878906 C 288.230469 451.722656 290.238281 454.246094 291.339844 454.246094 C 291.859375 454.246094 292.246094 454.507812 292.246094 454.765625 C 292.246094 455.671875 297.367188 458.265625 298.210938 457.746094 C 298.664062 457.488281 298.859375 457.488281 298.597656 457.8125 C 297.820312 458.65625 299.570312 459.757812 303.589844 460.988281 C 305.726562 461.699219 308.1875 462.542969 309.097656 462.867188 C 310.976562 463.644531 311.300781 463.707031 316.871094 464.679688 C 319.203125 465.070312 321.667969 465.71875 322.445312 466.042969 C 325.554688 467.46875 348.234375 465.457031 352.835938 463.386719 C 355.558594 462.089844 362.816406 459.433594 363.464844 459.433594 C 364.175781 459.433594 364.433594 458.460938 364.242188 457.230469 C 364.175781 456.90625 364.566406 456.96875 365.082031 457.488281 C 365.667969 457.941406 366.121094 458.007812 366.121094 457.746094 C 366.121094 457.164062 366.574219 456.839844 370.398438 454.894531 C 372.730469 453.664062 374.542969 451.914062 374.542969 450.8125 C 374.542969 450.230469 374.671875 450.230469 375.128906 450.878906 C 375.515625 451.527344 375.773438 451.527344 376.488281 450.683594 C 376.941406 450.164062 377.71875 449.710938 378.171875 449.710938 C 378.691406 449.710938 379.078125 449.453125 379.078125 449.0625 C 379.078125 448.738281 380.246094 447.3125 381.738281 445.890625 C 383.164062 444.398438 384.199219 442.972656 383.941406 442.585938 C 383.746094 442.261719 383.941406 442.128906 384.523438 442.324219 C 385.105469 442.519531 385.625 442.195312 385.882812 441.351562 C 386.078125 440.574219 386.660156 439.992188 387.050781 439.992188 C 387.503906 439.992188 388.539062 438.890625 389.449219 437.53125 C 390.355469 436.234375 391.976562 434.09375 393.140625 432.863281 C 400.398438 425.023438 400.851562 424.308594 400.527344 422.300781 C 400.464844 421.976562 400.722656 421.976562 401.113281 422.171875 C 401.5 422.429688 402.601562 421.71875 403.574219 420.679688 C 407.460938 416.339844 408.238281 415.367188 407.722656 415.367188 C 407.460938 415.367188 407.59375 415.109375 407.914062 414.847656 C 408.304688 414.589844 409.148438 413.746094 409.859375 412.90625 C 410.832031 411.738281 410.898438 411.285156 410.25 410.898438 C 409.601562 410.507812 409.664062 410.25 410.507812 409.988281 C 411.089844 409.730469 411.351562 409.796875 411.15625 410.183594 C 410.960938 410.574219 410.898438 410.832031 411.089844 410.832031 C 411.542969 410.832031 414.71875 407.65625 414.71875 407.203125 C 414.71875 406.878906 415.304688 406.101562 418.023438 403.054688 C 419.0625 401.890625 419.902344 400.527344 419.902344 399.945312 C 419.902344 399.425781 420.097656 399.167969 420.359375 399.363281 C 420.8125 399.878906 423.144531 398 423.144531 397.160156 C 423.144531 396.835938 424.632812 395.085938 426.382812 393.207031 C 428.199219 391.328125 429.820312 389.253906 430.011719 388.671875 C 430.207031 388.023438 430.660156 387.699219 431.050781 387.894531 C 431.503906 388.214844 431.632812 387.957031 431.375 387.308594 C 431.179688 386.726562 431.179688 386.273438 431.4375 386.402344 C 431.699219 386.46875 433.578125 384.71875 435.585938 382.515625 C 437.59375 380.375 439.410156 378.691406 439.601562 378.949219 C 439.796875 379.144531 439.992188 378.820312 439.992188 378.300781 C 439.992188 377.71875 440.445312 377.070312 441.027344 376.875 C 441.613281 376.617188 441.9375 376.035156 441.675781 375.453125 C 441.480469 374.933594 441.546875 374.671875 441.9375 374.867188 C 442.261719 375.0625 443.945312 373.894531 445.628906 372.210938 C 447.3125 370.527344 448.222656 369.359375 447.574219 369.554688 C 446.859375 369.8125 446.535156 369.75 446.796875 369.296875 C 447.054688 368.972656 447.769531 368.839844 448.480469 369.035156 C 449.128906 369.296875 449.710938 369.164062 449.710938 368.839844 C 449.710938 368.324219 452.367188 366.769531 453.925781 366.378906 C 454.3125 366.3125 456.191406 365.472656 458.199219 364.628906 C 460.210938 363.722656 462.023438 363.140625 462.28125 363.332031 C 462.476562 363.527344 463.0625 363.398438 463.578125 362.945312 C 464.941406 361.777344 476.019531 361.324219 480.167969 362.230469 C 482.113281 362.621094 484.507812 363.074219 485.480469 363.074219 C 486.390625 363.140625 487.035156 363.464844 486.84375 363.722656 C 486.648438 364.046875 486.90625 364.175781 487.359375 364.109375 C 487.878906 364.046875 489.175781 364.371094 490.210938 364.824219 C 491.3125 365.277344 492.351562 365.667969 492.675781 365.601562 C 492.933594 365.535156 493.128906 365.730469 493.128906 366.054688 C 493.128906 366.378906 493.839844 366.832031 494.746094 367.027344 C 495.65625 367.285156 496.367188 367.738281 496.367188 368.0625 C 496.367188 368.453125 496.886719 368.710938 497.535156 368.710938 C 498.117188 368.710938 499.867188 369.878906 501.421875 371.304688 C 502.976562 372.730469 504.53125 373.765625 504.855469 373.507812 C 505.179688 373.3125 505.375 373.378906 505.308594 373.703125 C 505.117188 374.347656 506.21875 375.773438 508.808594 378.238281 C 509.847656 379.210938 510.625 380.375 510.625 380.828125 C 510.625 381.347656 510.949219 381.542969 511.402344 381.28125 C 511.855469 381.023438 511.921875 381.089844 511.660156 381.605469 C 511.402344 381.996094 511.464844 382.707031 511.789062 383.164062 C 512.113281 383.617188 512.890625 385.300781 513.539062 386.984375 L 514.640625 389.964844 L 526.953125 390.097656 L 539.265625 390.160156 L 538.8125 388.023438 C 538.554688 386.855469 538.097656 385.558594 537.773438 385.171875 C 537.453125 384.78125 537.386719 384.265625 537.644531 384.070312 C 537.839844 383.808594 537.582031 383.097656 536.996094 382.515625 C 535.960938 381.347656 535.894531 381.089844 535.894531 379.535156 C 535.894531 379.078125 534.859375 377.199219 533.628906 375.320312 C 532.398438 373.441406 531.75 372.144531 532.203125 372.40625 C 532.589844 372.664062 531.878906 371.367188 530.519531 369.488281 C 529.222656 367.609375 528.121094 365.796875 528.121094 365.472656 C 528.121094 365.082031 527.859375 364.824219 527.601562 364.824219 C 527.277344 364.824219 526.628906 364.109375 526.175781 363.203125 C 525.722656 362.363281 525.074219 361.777344 524.75 361.972656 C 524.492188 362.167969 524.230469 361.972656 524.230469 361.585938 C 524.230469 360.871094 519.175781 355.753906 516.261719 353.484375 C 515.289062 352.769531 513.800781 351.539062 512.828125 350.699219 C 511.921875 349.921875 510.949219 349.402344 510.625 349.597656 C 510.363281 349.789062 509.910156 349.464844 509.714844 348.882812 C 509.523438 348.363281 509.070312 348.039062 508.808594 348.234375 C 508.484375 348.429688 507.644531 347.976562 506.867188 347.328125 C 506.089844 346.613281 505.246094 346.03125 504.921875 346.03125 C 504.015625 346.03125 500.902344 344.410156 500.902344 343.894531 C 500.902344 343.632812 500.515625 343.441406 500.0625 343.441406 C 499.609375 343.441406 497.339844 342.726562 495.007812 341.820312 C 489.175781 339.488281 477.707031 337.996094 469.152344 338.515625 C 461.699219 338.96875 455.027344 340.070312 453.792969 340.976562 C 453.339844 341.300781 452.691406 341.429688 452.304688 341.171875 C 451.980469 340.976562 451.65625 341.105469 451.65625 341.429688 C 451.65625 341.820312 451.203125 342.144531 450.621094 342.144531 C 450.101562 342.144531 449.777344 342.402344 449.972656 342.726562 C 450.164062 343.050781 449.972656 343.308594 449.519531 343.246094 C 447.507812 343.179688 446.40625 343.503906 446.796875 344.023438 C 446.992188 344.410156 446.148438 344.929688 444.851562 345.320312 C 443.621094 345.644531 441.675781 346.679688 440.574219 347.585938 C 439.472656 348.496094 438.175781 349.273438 437.660156 349.273438 C 437.140625 349.273438 436.753906 349.53125 436.753906 349.921875 C 436.753906 350.242188 436.492188 350.566406 436.105469 350.566406 C 435.519531 350.566406 434.742188 351.152344 431.4375 354.261719 C 430.789062 354.84375 430.464844 355.492188 430.597656 355.816406 C 430.789062 356.074219 430.597656 356.53125 430.207031 356.789062 C 429.6875 357.113281 429.625 356.984375 429.949219 356.398438 C 430.273438 355.945312 429.753906 356.074219 428.847656 356.789062 C 427.9375 357.4375 427.292969 358.214844 427.484375 358.472656 C 427.613281 358.796875 427.292969 358.992188 426.773438 358.992188 C 425.605469 358.992188 421.652344 362.816406 419.449219 365.992188 C 418.21875 367.871094 418.089844 368.453125 418.738281 369.296875 C 419.449219 370.203125 419.449219 370.203125 418.476562 369.488281 C 417.054688 368.386719 415.757812 369.230469 412.777344 373.117188 C 411.542969 374.804688 409.859375 376.875 409.082031 377.71875 C 408.304688 378.625 407.851562 379.597656 408.046875 379.988281 C 408.304688 380.3125 407.980469 380.441406 407.332031 380.179688 C 406.425781 379.859375 406.230469 379.988281 406.492188 380.699219 C 406.878906 381.542969 405.972656 382.578125 404.933594 382.644531 C 404.480469 382.644531 400.851562 386.855469 401.304688 386.855469 C 401.628906 386.855469 398.84375 390.289062 396.574219 392.625 C 395.992188 393.207031 394.566406 395.085938 393.402344 396.769531 C 392.167969 398.457031 390.875 399.816406 390.550781 399.816406 C 390.226562 399.816406 390.160156 400.335938 390.355469 400.917969 C 390.613281 401.566406 390.613281 401.824219 390.355469 401.628906 C 389.964844 401.175781 387.503906 403.769531 387.503906 404.675781 C 387.503906 404.933594 386.792969 405.710938 385.820312 406.425781 C 384.910156 407.136719 384.328125 407.914062 384.523438 408.046875 C 384.71875 408.238281 383.941406 409.148438 382.902344 410.054688 C 381.605469 411.089844 381.023438 412.0625 381.21875 412.90625 C 381.414062 413.554688 381.28125 413.878906 380.960938 413.683594 C 380.3125 413.292969 378.433594 414.914062 378.433594 415.820312 C 378.433594 416.144531 376.554688 418.347656 374.21875 420.746094 C 371.886719 423.078125 370.007812 425.21875 370.007812 425.410156 C 370.074219 426.773438 369.941406 427.03125 369.296875 427.03125 C 368.972656 427.03125 367.738281 427.808594 366.703125 428.847656 C 365.601562 429.820312 364.046875 431.242188 363.203125 431.957031 C 362.363281 432.734375 361.519531 433.1875 361.324219 432.992188 C 361.128906 432.800781 360.9375 432.992188 360.9375 433.382812 C 360.9375 433.835938 360.675781 434.160156 360.289062 434.160156 C 359.964844 434.160156 358.601562 434.9375 357.242188 435.84375 C 354.003906 437.984375 348.300781 440.640625 346.679688 440.640625 C 346.03125 440.640625 345.253906 440.964844 345.058594 441.289062 C 344.800781 441.675781 344.347656 441.804688 344.023438 441.546875 C 343.699219 441.351562 343.050781 441.480469 342.597656 441.871094 C 341.042969 443.167969 331.257812 443.878906 325.035156 443.230469 C 321.863281 442.84375 319.011719 442.261719 318.816406 442 C 318.621094 441.675781 317.324219 441.222656 315.898438 440.964844 C 312.207031 440.25 308.1875 438.242188 305.402344 435.652344 C 304.042969 434.417969 302.164062 432.800781 301.253906 432.023438 C 299.828125 430.789062 298.078125 428.394531 294.191406 422.496094 C 291.40625 418.21875 288.8125 407.785156 289.007812 401.4375 C 289.074219 397.546875 290.824219 387.375 291.46875 386.855469 C 292.3125 386.207031 293.609375 381.671875 293.15625 380.960938 C 292.894531 380.503906 292.960938 380.375 293.347656 380.570312 C 294.0625 381.023438 296.332031 378.042969 296.332031 376.683594 C 296.332031 376.230469 296.65625 376.097656 296.976562 376.292969 C 297.367188 376.554688 297.496094 376.292969 297.238281 375.644531 C 297.042969 375.0625 297.109375 374.609375 297.367188 374.738281 C 298.015625 374.867188 300.671875 372.015625 300.671875 371.175781 C 300.671875 370.851562 300.996094 370.785156 301.386719 370.980469 C 301.773438 371.238281 301.96875 370.980469 301.839844 370.332031 C 301.707031 369.488281 302.097656 369.101562 303.199219 369.035156 C 304.042969 368.972656 305.273438 368.195312 305.984375 367.351562 C 306.699219 366.507812 307.085938 366.183594 306.828125 366.636719 C 306.4375 367.351562 306.632812 367.351562 307.734375 366.636719 C 308.511719 366.183594 309.097656 365.601562 309.097656 365.34375 C 309.097656 365.019531 309.355469 364.824219 309.742188 364.824219 C 310.066406 364.824219 311.945312 364.109375 313.890625 363.203125 C 317.585938 361.519531 321.472656 360.546875 326.914062 360.027344 C 328.730469 359.835938 330.804688 359.511719 331.644531 359.25 C 332.425781 359.058594 334.367188 359.121094 335.859375 359.574219 C 337.347656 359.964844 340.070312 360.417969 341.820312 360.546875 C 345.644531 360.9375 349.726562 362.039062 350.242188 362.878906 C 350.4375 363.203125 351.023438 363.332031 351.539062 363.074219 C 352.058594 362.878906 352.511719 363.074219 352.511719 363.527344 C 352.511719 363.917969 352.835938 364.046875 353.160156 363.851562 C 353.546875 363.65625 353.808594 363.789062 353.808594 364.109375 C 353.808594 364.5 354.261719 364.824219 354.78125 364.824219 C 355.296875 364.824219 355.753906 365.082031 355.753906 365.472656 C 355.753906 365.796875 356.269531 366.121094 356.917969 366.121094 C 357.566406 366.121094 358.796875 366.832031 359.640625 367.738281 C 360.480469 368.648438 361.453125 369.359375 361.84375 369.359375 C 362.554688 369.425781 365.472656 371.628906 365.472656 372.144531 C 365.472656 372.277344 366.507812 373.507812 367.738281 374.804688 C 368.972656 376.164062 370.007812 377.65625 370.007812 378.171875 C 370.007812 378.691406 370.265625 379.078125 370.589844 379.078125 C 371.5 379.078125 374.480469 385.625 374.804688 388.214844 L 375.0625 390.421875 L 344.023438 390.226562 L 312.917969 390.097656 L 313.113281 399.621094 L 313.308594 409.210938 L 343.699219 409.40625 L 374.089844 409.535156 L 376.097656 407.332031 C 378.300781 404.933594 380.179688 402.019531 379.210938 402.667969 C 378.886719 402.863281 380.3125 401.242188 382.449219 399.101562 C 384.847656 396.640625 386.144531 394.828125 385.949219 394.242188 C 385.753906 393.726562 385.820312 393.402344 386.144531 393.59375 C 386.921875 394.113281 388.605469 392.558594 389.125 390.808594 C 389.449219 389.640625 389.382812 389.382812 388.800781 389.773438 C 388.28125 390.097656 388.085938 390.03125 388.410156 389.578125 C 388.671875 389.1875 389.253906 388.996094 389.707031 389.1875 C 390.160156 389.382812 391.390625 388.410156 392.429688 387.050781 C 393.402344 385.691406 394.761719 384.003906 395.410156 383.355469 C 396.058594 382.644531 396.574219 381.671875 396.574219 381.21875 C 396.574219 379.726562 391.84375 371.238281 390.484375 370.265625 C 389.773438 369.75 389.382812 369.359375 389.707031 369.359375 C 390.03125 369.359375 389.773438 368.648438 389.1875 367.738281 C 388.605469 366.832031 388.28125 366.121094 388.539062 366.121094 C 388.800781 366.121094 388.214844 365.535156 387.246094 364.757812 C 386.335938 364.046875 385.558594 363.140625 385.558594 362.75 C 385.558594 361.585938 375.386719 351.992188 371.367188 349.402344 C 369.359375 348.105469 367.351562 346.613281 366.832031 346.160156 C 366.3125 345.644531 365.40625 345.449219 364.695312 345.578125 C 363.980469 345.773438 363.65625 345.644531 363.980469 345.191406 C 364.242188 344.734375 363.980469 344.671875 363.269531 344.929688 C 362.621094 345.191406 362.296875 345.125 362.554688 344.734375 C 363.007812 343.957031 359.835938 342.597656 358.925781 343.179688 C 358.601562 343.375 358.34375 343.246094 358.34375 342.988281 C 358.34375 341.886719 352.1875 340.199219 345.058594 339.226562 C 337.476562 338.191406 327.757812 337.933594 326.980469 338.710938 Z M 287.710938 356.011719 C 287.710938 356.140625 287.257812 356.464844 286.675781 356.660156 C 286.15625 356.855469 285.898438 356.789062 286.09375 356.398438 C 286.480469 355.753906 287.710938 355.492188 287.710938 356.011719 Z M 287.710938 356.011719 " fill-opacity="1" fill-rule="nonzero"/><path fill="#ff751f" d="M 405 381.738281 C 405 382.0625 405.324219 382.191406 405.648438 381.996094 C 406.035156 381.800781 406.296875 381.476562 406.296875 381.28125 C 406.296875 381.152344 406.035156 381.023438 405.648438 381.023438 C 405.324219 381.023438 405 381.347656 405 381.738281 Z M 405 381.738281 " fill-opacity="1" fill-rule="nonzero"/><path fill="#ff751f" d="M 419.0625 411.804688 C 418.089844 413.035156 417.441406 414.394531 417.636719 414.71875 C 417.894531 415.109375 417.699219 415.304688 417.183594 415.238281 C 416.730469 415.109375 416.40625 415.433594 416.535156 415.886719 C 416.597656 416.40625 416.40625 416.597656 416.082031 416.40625 C 415.757812 416.210938 415.109375 416.535156 414.65625 417.117188 C 414.007812 417.894531 414.007812 418.023438 414.589844 417.699219 C 414.980469 417.441406 415.367188 417.375 415.367188 417.570312 C 415.367188 417.699219 414.332031 418.476562 413.101562 419.257812 C 411.867188 420.035156 410.636719 421.328125 410.441406 422.171875 C 410.25 423.078125 409.535156 423.921875 408.953125 424.117188 C 408.304688 424.308594 407.460938 425.152344 407.074219 425.996094 C 406.492188 427.292969 406.878906 427.9375 410.765625 432.085938 C 413.164062 434.679688 414.980469 436.945312 414.785156 437.207031 C 414.589844 437.398438 414.980469 437.398438 415.691406 437.140625 C 416.40625 436.882812 416.730469 436.882812 416.535156 437.140625 C 415.886719 437.722656 417.183594 439.992188 418.089844 439.992188 C 418.476562 439.992188 420.035156 441.351562 421.523438 442.972656 C 423.078125 444.65625 424.632812 445.757812 425.023438 445.5 C 425.476562 445.304688 425.671875 445.371094 425.605469 445.695312 C 425.347656 446.472656 428.003906 448.871094 430.402344 450.101562 C 431.375 450.621094 432.929688 451.722656 433.902344 452.628906 C 434.871094 453.535156 435.972656 454.246094 436.363281 454.246094 C 436.753906 454.246094 437.917969 454.960938 438.957031 455.867188 C 441.222656 457.8125 444.851562 459.5625 450.296875 461.3125 C 452.5625 462.089844 454.765625 462.929688 455.15625 463.253906 C 456.0625 463.96875 463.707031 465.847656 469.152344 466.691406 C 473.625 467.335938 489.238281 466.882812 489.886719 466.042969 C 490.082031 465.78125 491.960938 465.199219 494.164062 464.746094 C 496.304688 464.292969 499.867188 463.0625 502.070312 462.023438 C 504.273438 460.921875 506.410156 460.078125 506.734375 460.078125 C 507.902344 460.078125 511.273438 457.683594 510.753906 457.230469 C 510.496094 456.96875 510.753906 456.773438 511.273438 456.90625 C 511.789062 457.035156 513.476562 456.320312 515.03125 455.285156 C 517.492188 453.601562 518.011719 452.886719 517.816406 451.527344 C 517.816406 451.265625 518.140625 451.203125 518.660156 451.398438 C 519.113281 451.589844 519.695312 451.265625 519.890625 450.75 C 520.148438 450.164062 520.734375 449.710938 521.316406 449.710938 C 521.835938 449.710938 522.289062 449.453125 522.289062 449.0625 C 522.289062 448.738281 523.195312 447.636719 524.230469 446.667969 C 525.332031 445.757812 526.046875 444.851562 525.851562 444.65625 C 525.722656 444.464844 526.304688 443.816406 527.148438 443.101562 C 528.054688 442.390625 528.769531 441.417969 528.769531 440.898438 C 528.769531 440.378906 529.222656 439.992188 529.738281 439.992188 C 530.257812 439.992188 530.710938 439.410156 530.710938 438.695312 C 530.710938 437.984375 530.972656 437.398438 531.230469 437.398438 C 531.8125 437.398438 533.628906 432.28125 533.433594 431.375 C 533.304688 431.050781 533.5625 430.984375 533.886719 431.179688 C 534.210938 431.4375 534.988281 430.207031 535.636719 428.523438 C 536.285156 426.773438 536.996094 425.089844 537.191406 424.765625 C 537.839844 423.792969 539.136719 418.285156 539.136719 416.40625 L 539.136719 414.71875 L 528.574219 414.71875 C 520.992188 414.71875 517.753906 414.980469 517.167969 415.496094 C 516.519531 416.082031 516.390625 416.082031 516.714844 415.5625 C 516.972656 415.042969 516.648438 414.847656 515.808594 414.914062 C 514.640625 414.980469 514.058594 416.535156 514.445312 418.738281 C 514.445312 419.0625 514.253906 419.257812 513.929688 419.257812 C 513.085938 419.257812 509.847656 426.449219 510.234375 427.421875 C 510.429688 427.9375 510.234375 428.261719 509.78125 428.132812 C 509.328125 428.070312 509.070312 428.394531 509.199219 428.847656 C 509.261719 429.363281 509.132812 429.558594 508.808594 429.363281 C 508.484375 429.171875 507.125 430.140625 505.828125 431.566406 C 504.53125 432.992188 503.171875 434.160156 502.914062 434.160156 C 502.589844 434.160156 502.199219 434.742188 502.003906 435.457031 C 501.8125 436.167969 501.226562 436.753906 500.644531 436.753906 C 500.0625 436.753906 499.609375 437.011719 499.609375 437.269531 C 499.609375 437.917969 494.292969 440.378906 491.507812 441.027344 C 490.472656 441.289062 489.238281 441.742188 488.851562 442 C 487.621094 443.039062 478.09375 444.007812 472.78125 443.6875 C 467.792969 443.363281 466.625 443.167969 463.644531 441.9375 C 462.929688 441.613281 460.597656 440.898438 458.460938 440.25 C 456.320312 439.667969 454.246094 438.890625 453.859375 438.566406 C 453.46875 438.308594 452.953125 438.242188 452.757812 438.5 C 452.5 438.695312 452.304688 438.4375 452.304688 437.855469 C 452.304688 437.140625 451.980469 436.945312 451.203125 437.207031 C 450.554688 437.398438 450.230469 437.398438 450.488281 437.074219 C 450.75 436.816406 448.609375 434.9375 445.628906 432.992188 C 442.714844 431.050781 439.925781 428.910156 439.472656 428.199219 C 439.019531 427.550781 438.371094 427.160156 438.113281 427.292969 C 437.855469 427.484375 437.207031 426.902344 436.753906 426.058594 C 436.296875 425.152344 435.648438 424.441406 435.390625 424.441406 C 434.613281 424.441406 431.179688 420.746094 426.382812 414.847656 C 424.050781 411.933594 421.914062 409.601562 421.523438 409.601562 C 421.199219 409.535156 420.035156 410.574219 419.0625 411.804688 Z M 421.847656 410.441406 C 421.847656 410.636719 421.589844 410.960938 421.199219 411.15625 C 420.875 411.351562 420.550781 411.222656 420.550781 410.898438 C 420.550781 410.507812 420.875 410.183594 421.199219 410.183594 C 421.589844 410.183594 421.847656 410.3125 421.847656 410.441406 Z M 438.5 428.714844 C 438.308594 428.910156 437.722656 428.976562 437.269531 428.78125 C 436.753906 428.585938 436.945312 428.394531 437.660156 428.394531 C 438.371094 428.328125 438.761719 428.523438 438.5 428.714844 Z M 451.332031 438.632812 C 451.527344 438.957031 451.460938 439.410156 451.136719 439.601562 C 450.8125 439.796875 450.554688 439.539062 450.554688 439.019531 C 450.554688 437.917969 450.75 437.789062 451.332031 438.632812 Z M 451.332031 438.632812 " fill-opacity="1" fill-rule="nonzero"/></svg>