<?xml version="1.0" encoding="UTF-8"?>
<svg version="1.1" xmlns="http://www.w3.org/2000/svg" width="500" height="500">
<path d="M0 0 C0 0.66 0 1.32 0 2 C0.598125 2.28875 1.19625 2.5775 1.8125 2.875 C4 4 4 4 7 6 C7 6.66 7 7.32 7 8 C7.66 8 8.32 8 9 8 C10.5859375 9.57421875 10.5859375 9.57421875 12.375 11.6875 C13.30119141 12.77998047 13.30119141 12.77998047 14.24609375 13.89453125 C14.82488281 14.58933594 15.40367187 15.28414062 16 16 C17.2065625 17.423125 17.2065625 17.423125 18.4375 18.875 C20 21 20 21 20 23 C20.66 23 21.32 23 22 23 C22.32613281 23.59167969 22.65226563 24.18335938 22.98828125 24.79296875 C25.68719224 29.67914121 25.68719224 29.67914121 28.5 34.5 C29.2425 35.7375 29.2425 35.7375 30 37 C30.42667969 37.68964844 30.85335937 38.37929687 31.29296875 39.08984375 C36.11975203 47.21560496 36.11975203 47.21560496 35 52 C33.25530486 54.89393118 31.18953703 57.43227021 29 60 C28.4740625 60.62390625 27.948125 61.2478125 27.40625 61.890625 C26.40438038 63.06628833 25.39676965 64.23708932 24.3828125 65.40234375 C21.71743894 68.48182902 19.25881343 71.61177985 17 75 C16.34 75 15.68 75 15 75 C14.6596875 76.0828125 14.6596875 76.0828125 14.3125 77.1875 C12.75173074 80.53200556 10.6266129 82.44073615 8 85 C7.67 85.99 7.34 86.98 7 88 C6.34 88 5.68 88 5 88 C4.731875 88.78375 4.46375 89.5675 4.1875 90.375 C3 93 3 93 0 95 C-1.89964581 95.24609566 -1.89964581 95.24609566 -4.08122253 95.24050903 C-5.32428917 95.24463303 -5.32428917 95.24463303 -6.59246826 95.24884033 C-7.49805481 95.24164978 -8.40364136 95.23445923 -9.33666992 95.22705078 C-10.29295792 95.22734283 -11.24924591 95.22763489 -12.23451233 95.22793579 C-15.39992298 95.22654085 -18.56509915 95.2109718 -21.73046875 95.1953125 C-23.92336397 95.19158296 -26.11626085 95.18873571 -28.30915833 95.18673706 C-34.08450918 95.17909599 -39.85975965 95.15944337 -45.6350708 95.1373291 C-51.52688234 95.11688091 -57.41871009 95.10773754 -63.31054688 95.09765625 C-74.87374915 95.07619796 -86.43685053 95.04101191 -98 95 C-98 83.78 -98 72.56 -98 61 C-66.65 60.67 -35.3 60.34 -3 60 C-4.98 55.05 -4.98 55.05 -7 50 C-7.33 49.01 -7.66 48.02 -8 47 C-8.66 47 -9.32 47 -10 47 C-10.7425 45.4840625 -10.7425 45.4840625 -11.5 43.9375 C-14.50912169 38.64187724 -19.17456188 33.94181271 -25 32 C-25 31.34 -25 30.68 -25 30 C-25.94875 29.690625 -26.8975 29.38125 -27.875 29.0625 C-31 28 -31 28 -33 27 C-33 26.34 -33 25.68 -33 25 C-33.66 24.896875 -34.32 24.79375 -35 24.6875 C-38 24 -38 24 -41.5625 22.5625 C-46.85902927 20.48861906 -52.39426582 19.79414568 -58 19 C-58 18.34 -58 17.68 -58 17 C-60.31284456 17.14026283 -62.62527591 17.28735558 -64.9375 17.4375 C-66.22527344 17.51871094 -67.51304687 17.59992188 -68.83984375 17.68359375 C-71.86023957 17.64919188 -71.86023957 17.64919188 -73 19 C-74.87310881 19.31253676 -76.74719953 19.62017527 -78.62548828 19.89990234 C-88.38597049 21.37788877 -95.8973767 23.93638505 -103.9375 29.8125 C-107 32 -107 32 -110 32 C-110.66 33.32 -111.32 34.64 -112 36 C-112.66 36 -113.32 36 -114 36 C-114.66 37.32 -115.32 38.64 -116 40 C-116.66 40 -117.32 40 -118 40 C-118 41.32 -118 42.64 -118 44 C-119.37890625 45.5390625 -119.37890625 45.5390625 -121 47 C-129.97648025 62.63644946 -132.4155988 80.59965938 -127.921875 98.0234375 C-126.23688728 103.46394871 -123.82664943 108.37622433 -121.25 113.4375 C-120 116 -120 116 -120 118 C-119.34 118 -118.68 118 -118 118 C-117.56558594 118.72832031 -117.13117188 119.45664062 -116.68359375 120.20703125 C-114.81425813 123.30813327 -112.76740331 125.29172849 -110.0625 127.6875 C-109.20785156 128.45449219 -108.35320312 129.22148437 -107.47265625 130.01171875 C-105.34860855 131.71968128 -103.4852077 132.92173123 -101 134 C-101 134.66 -101 135.32 -101 136 C-98.69 136.66 -96.38 137.32 -94 138 C-94 138.66 -94 139.32 -94 140 C-92.96875 139.95875 -91.9375 139.9175 -90.875 139.875 C-87.05826917 139.99812035 -84.57033471 140.76131245 -81 142 C-71.49594857 143.55804122 -59.87175572 144.43587786 -51 140 C-48.3276379 139.86584528 -45.67749512 139.95681459 -43 140 C-43 139.34 -43 138.68 -43 138 C-41.06629769 136.99267601 -39.12789694 135.99436712 -37.1875 135 C-36.10855469 134.443125 -35.02960938 133.88625 -33.91796875 133.3125 C-31 132 -31 132 -28 132 C-28 131.34 -28 130.68 -28 130 C-27.01 130 -26.02 130 -25 130 C-25 129.34 -25 128.68 -25 128 C-24.01 127.67 -23.02 127.34 -22 127 C-20.64264858 125.69112542 -19.31494512 124.35147138 -18 123 C-16.87892804 122.07853354 -15.75355319 121.16228859 -14.625 120.25 C-11.29745804 117.44860784 -8.91960665 114.33800348 -6.40234375 110.8125 C-4.57064259 108.44506451 -2.36496683 106.81920525 0 105 C3.10951363 101.52030618 5.69925613 98.05369158 8 94 C8.99 92.515 8.99 92.515 10 91 C10.66 91 11.32 91 12 91 C12.2578125 90.44828125 12.515625 89.8965625 12.78125 89.328125 C14.17963125 86.65685825 15.78763305 84.23148091 17.5 81.75 C18.1084375 80.85796875 18.716875 79.9659375 19.34375 79.046875 C20.16359375 78.03367188 20.16359375 78.03367188 21 77 C21.66 77 22.32 77 23 77 C23.433125 75.7934375 23.433125 75.7934375 23.875 74.5625 C25 72 25 72 27 71 C28.13350534 68.98330173 28.13350534 68.98330173 29 67 C29.66 67 30.32 67 31 67 C31.4021875 65.7934375 31.4021875 65.7934375 31.8125 64.5625 C32.204375 63.716875 32.59625 62.87125 33 62 C33.99 61.67 34.98 61.34 36 61 C36.28875 60.278125 36.5775 59.55625 36.875 58.8125 C38.33134974 55.17162564 40.43368013 52.96113831 43 50 C43.33 49.34 43.66 48.68 44 48 C44.66 48 45.32 48 46 48 C46 47.34 46 46.68 46 46 C47.375 44.375 47.375 44.375 49 43 C49.66 43 50.32 43 51 43 C51.20625 42.319375 51.4125 41.63875 51.625 40.9375 C53.46490127 37.00680183 56.06678393 34.16383748 59 31 C59.70962891 30.22849609 59.70962891 30.22849609 60.43359375 29.44140625 C61.57435399 28.24648528 62.78220662 27.1163106 64 26 C64.66 26 65.32 26 66 26 C66.40412109 25.12601563 66.40412109 25.12601563 66.81640625 24.234375 C68.00587023 21.98891824 69.30583491 20.19305156 70.9375 18.25 C71.44152344 17.63640625 71.94554687 17.0228125 72.46484375 16.390625 C74 15 74 15 77 15 C77.66 13.68 78.32 12.36 79 11 C79.66 11 80.32 11 81 11 C81.66 9.68 82.32 8.36 83 7 C83.66 7 84.32 7 85 7 C85 6.34 85 5.68 85 5 C89.41642615 0.83874514 94.010121 -2.61772023 100 -4 C100 -4.66 100 -5.32 100 -6 C102.64738916 -7.4606285 103.89448334 -8 107 -8 C107 -8.66 107 -9.32 107 -10 C108.26839526 -10.50615298 109.53983102 -11.00469099 110.8125 -11.5 C111.52019531 -11.7784375 112.22789062 -12.056875 112.95703125 -12.34375 C115 -13 115 -13 118 -13 C118 -13.66 118 -14.32 118 -15 C148.60020363 -21.5660356 176.83686792 -20.0333415 205 -6 C205 -5.34 205 -4.68 205 -4 C205.85464844 -3.76925781 206.70929688 -3.53851563 207.58984375 -3.30078125 C211.44969527 -1.82846675 214.37228938 0.26108303 217.5625 2.8125 C218.38911133 3.45155273 218.38911133 3.45155273 219.23242188 4.10351562 C222.73037575 6.84627661 225.9978897 9.70718255 229 13 C229 13.66 229 14.32 229 15 C229.66 15 230.32 15 231 15 C231 15.66 231 16.32 231 17 C231.99 17.33 232.98 17.66 234 18 C240.30273925 25.3839623 250 37.75482092 250 48 C250.66 48 251.32 48 252 48 C252.51069267 49.5381577 253.00802747 51.08075289 253.5 52.625 C253.91765625 53.91277344 253.91765625 53.91277344 254.34375 55.2265625 C255 58 255 58 255 64 C241.14 64 227.28 64 213 64 C212.67 62.02 212.34 60.04 212 58 C211.34 58 210.68 58 210 58 C209.32880451 56.5437455 208.66318193 55.08492133 208 53.625 C207.62875 52.81289062 207.2575 52.00078125 206.875 51.1640625 C206 49 206 49 206 47 C205.01 47 204.02 47 203 47 C202.896875 46.360625 202.79375 45.72125 202.6875 45.0625 C202.460625 44.381875 202.23375 43.70125 202 43 C201.01 42.67 200.02 42.34 199 42 C196.62704941 39.74873918 194.38365126 37.42333932 192.1875 35 C189.73490559 32.75762797 187.48144535 31.62533085 184.4375 30.3125 C183.48746094 29.89613281 182.53742188 29.47976562 181.55859375 29.05078125 C179.73171302 28.30050504 177.87359729 27.62453243 176 27 C176 26.34 176 25.68 176 25 C174.2365625 24.814375 174.2365625 24.814375 172.4375 24.625 C169.70849728 24.33773656 167.41936983 23.81515783 164.78515625 22.9765625 C160.40168292 21.84563543 156.49939064 21.70470412 152 21.75 C151.23171875 21.74226563 150.4634375 21.73453125 149.671875 21.7265625 C144.77123378 21.74323135 140.70620062 22.50179276 136 24 C133.33236673 24.45388303 130.69419417 24.71640061 128 25 C128 25.66 128 26.32 128 27 C126.58521865 27.64995297 125.16808513 28.29478722 123.75 28.9375 C122.96109375 29.29714844 122.1721875 29.65679687 121.359375 30.02734375 C119.24176302 30.90033279 117.23330638 31.51338508 115 32 C115 32.66 115 33.32 115 34 C114.21625 34.2475 113.4325 34.495 112.625 34.75 C109.67682892 36.15389099 109.0975223 37.00675737 108 40 C107.34 40 106.68 40 106 40 C105.731875 40.598125 105.46375 41.19625 105.1875 41.8125 C104.00082594 43.99847854 102.90400887 45.41332594 101 47 C100.34 47 99.68 47 99 47 C98.76925781 47.55042969 98.53851563 48.10085937 98.30078125 48.66796875 C96.63989016 51.64560232 94.52621056 53.83353693 92.1875 56.3125 C89.23416926 59.49169875 86.43992737 62.59721648 84 66.1875 C83.34 67.115625 82.68 68.04375 82 69 C81.34 69 80.68 69 80 69 C79.6596875 70.0828125 79.6596875 70.0828125 79.3125 71.1875 C77.73664872 74.56432417 75.79123384 76.55767039 73 79 C72.34 79 71.68 79 71 79 C70.79375 79.66 70.5875 80.32 70.375 81 C67.49051314 87.29342587 62.92208653 92.20744206 58 97 C55.83171097 99.60194683 53.87945712 102.18081431 52 105 C51.34 105 50.68 105 50 105 C49.6596875 106.0828125 49.6596875 106.0828125 49.3125 107.1875 C48.04113142 109.91186124 46.71840973 111.39882482 44.55078125 113.42578125 C41.77510244 116.24340986 39.42346614 119.41737064 36.9765625 122.51953125 C35.33730476 124.57670252 33.66553286 126.58034466 31.9375 128.5625 C29.6642891 131.17545709 27.54082705 133.87344931 25.4375 136.625 C22.81232212 140.02263066 20.21677848 143.15085335 17 146 C16.34 146 15.68 146 15 146 C14.7525 146.5775 14.505 147.155 14.25 147.75 C12.81700012 150.32939979 11.21575324 152.06121592 9 154 C8.34 154 7.68 154 7 154 C7 154.99 7 155.98 7 157 C0.25 161 0.25 161 -2 161 C-2 161.66 -2 162.32 -2 163 C-4.97 163.99 -4.97 163.99 -8 165 C-8 165.66 -8 166.32 -8 167 C-10.90548882 169.04169485 -12.40142046 170 -16 170 C-16 170.66 -16 171.32 -16 172 C-17.65 172 -19.3 172 -21 172 C-21 172.66 -21 173.32 -21 174 C-28.9665934 177.11087437 -36.35849242 179.78097561 -45 180 C-45 180.66 -45 181.32 -45 182 C-52.37373863 182.89632321 -59.63856376 183.15313873 -67.0625 183.125 C-68.59874023 183.13080078 -68.59874023 183.13080078 -70.16601562 183.13671875 C-86.88464691 183.11535309 -86.88464691 183.11535309 -89 181 C-91.51859228 180.4380482 -94.02873303 179.92023227 -96.5625 179.4375 C-97.62887695 179.22963867 -97.62887695 179.22963867 -98.71679688 179.01757812 C-100.47719932 178.67494946 -102.23851797 178.33703447 -104 178 C-104 177.34 -104 176.68 -104 176 C-105.0725 175.855625 -106.145 175.71125 -107.25 175.5625 C-109.91662949 175.16250558 -112.41399729 174.72408076 -115 174 C-115 173.34 -115 172.68 -115 172 C-116.32 172 -117.64 172 -119 172 C-119 171.34 -119 170.68 -119 170 C-120.11375 169.814375 -120.11375 169.814375 -121.25 169.625 C-123.80141485 169.04513299 -125.7267573 168.26291261 -128 167 C-128 166.34 -128 165.68 -128 165 C-128.721875 164.7525 -129.44375 164.505 -130.1875 164.25 C-133.27606582 162.87730408 -135.51011418 161.27646704 -138 159 C-138 158.34 -138 157.68 -138 157 C-138.99 157 -139.98 157 -141 157 C-142.75390625 155.3203125 -142.75390625 155.3203125 -144.5625 153.125 C-145.16191406 152.40570313 -145.76132813 151.68640625 -146.37890625 150.9453125 C-146.91386719 150.30335938 -147.44882813 149.66140625 -148 149 C-148.66 148.34 -149.32 147.68 -150 147 C-150 146.01 -150 145.02 -150 144 C-150.66 144 -151.32 144 -152 144 C-152.99 141.525 -152.99 141.525 -154 139 C-154.66 139 -155.32 139 -156 139 C-161.74539086 127.11345501 -166.72031728 116.07520505 -169 103 C-169.18691406 102.02289063 -169.37382812 101.04578125 -169.56640625 100.0390625 C-170.67415329 93.76441146 -171.18034768 87.67091034 -171.1875 81.3125 C-171.18830566 80.61688965 -171.18911133 79.9212793 -171.18994141 79.20458984 C-171.13479489 74.26958979 -171.13479489 74.26958979 -170 72 C-169.72602279 69.8756229 -169.4548978 67.7508268 -169.20043945 65.62402344 C-167.79067808 54.25709529 -164.60679708 44.45048762 -160 34 C-159.34 34 -158.68 34 -158 34 C-157.855625 33.38125 -157.71125 32.7625 -157.5625 32.125 C-157 30 -157 30 -156 28 C-155.34 28 -154.68 28 -154 28 C-153.34 26.02 -152.68 24.04 -152 22 C-151.34 22 -150.68 22 -150 22 C-149.87625 21.401875 -149.7525 20.80375 -149.625 20.1875 C-149 18 -149 18 -147 15 C-146.34 15 -145.68 15 -145 15 C-145 14.34 -145 13.68 -145 13 C-142.53501866 10.45239359 -139.72749924 8.26043152 -137 6 C-136.17113281 5.30777344 -135.34226563 4.61554688 -134.48828125 3.90234375 C-129.84327054 0.0967071 -125.32846383 -3.22919881 -120 -6 C-119.2575 -6.4125 -118.515 -6.825 -117.75 -7.25 C-116 -8 -116 -8 -113 -8 C-113 -8.66 -113 -9.32 -113 -10 C-112.19175781 -10.26554688 -111.38351563 -10.53109375 -110.55078125 -10.8046875 C-109.48214844 -11.15789062 -108.41351563 -11.51109375 -107.3125 -11.875 C-106.25675781 -12.22304687 -105.20101562 -12.57109375 -104.11328125 -12.9296875 C-102.20615824 -13.58533581 -100.31332116 -14.28752043 -98.453125 -15.06640625 C-65.99140442 -27.4204687 -28.28603251 -16.47625498 0 0 Z " fill="#EB6326" transform="translate(204,164)"/>
<path d="M0 0 C0.33 0.66 0.66 1.32 1 2 C1.99 2.33 2.98 2.66 4 3 C5.52011626 4.69660916 6.97015146 6.45678036 8.375 8.25 C10.72329723 11.23580747 13.03466347 14.03466347 15.72265625 16.72265625 C18 19 18 19 19.0625 21.1875 C19.85001097 23.15468729 19.85001097 23.15468729 21.83984375 23.88671875 C24.29950883 25.15435807 25.64406687 26.58184554 27.5 28.625 C32.41476302 33.6770469 38.08479567 37.22798564 44 41 C45.62669687 42.12254501 47.25187446 43.24729726 48.875 44.375 C52.12970344 46.55665914 55.16994502 48.01793462 59 49 C59 49.66 59 50.32 59 51 C60.9490625 51.185625 60.9490625 51.185625 62.9375 51.375 C66.10221694 51.71355111 69.05447389 52.23784442 72.125 53.0625 C81.12002283 55.15766294 90.76688798 54.62582851 99.703125 52.51171875 C103.43670301 51.67991821 107.19591333 51.36813742 111 51 C111 50.34 111 49.68 111 49 C113.31 48.34 115.62 47.68 118 47 C118 46.34 118 45.68 118 45 C118.598125 44.74089844 119.19625 44.48179687 119.8125 44.21484375 C122.16499365 42.9083696 123.34096193 41.65883887 125 39.5625 C127.14894459 36.9348032 129.26943692 35.02263932 132 33 C132.33 32.01 132.66 31.02 133 30 C133.66 30 134.32 30 135 30 C135.15855469 29.46632813 135.31710937 28.93265625 135.48046875 28.3828125 C137.4621786 22.05447939 139.94761985 17.1047603 143 11 C156.53 11 170.06 11 184 11 C184 22.25 184 22.25 182.5 26.625 C182.2215625 27.46289062 181.943125 28.30078125 181.65625 29.1640625 C181.4396875 29.76992188 181.223125 30.37578125 181 31 C180.34 31 179.68 31 179 31 C178.8453125 32.28003906 178.8453125 32.28003906 178.6875 33.5859375 C176.08767471 46.49643352 166.37657511 60.21756867 156 68 C155.25621094 68.763125 154.51242187 69.52625 153.74609375 70.3125 C150.77418084 73.22100083 147.68889736 75.65072132 144.3125 78.0625 C143.70108154 78.49933105 143.08966309 78.93616211 142.4597168 79.38623047 C136.90094931 83.25111211 130.94672537 87 124 87 C124 87.66 124 88.32 124 89 C123.20335937 89.19335938 122.40671875 89.38671875 121.5859375 89.5859375 C115.16509528 91.13369456 115.16509528 91.13369456 108.875 93.125 C93.27988369 97.87133975 71.14375043 96.30342012 56 91 C54.54661093 90.60627253 53.08873798 90.22831606 51.625 89.875 C50.42875 89.58625 49.2325 89.2975 48 89 C48 88.34 48 87.68 48 87 C47.05125 86.855625 46.1025 86.71125 45.125 86.5625 C42 86 42 86 40 85 C40 84.34 40 83.68 40 83 C39.12859375 83.06574219 38.2571875 83.13148438 37.359375 83.19921875 C33.38498486 82.96352817 31.58591612 81.95260492 28.25 79.8125 C27.70923828 79.46662842 27.16847656 79.12075684 26.61132812 78.7644043 C21.47648685 75.42489702 16.48216 71.87414767 11.5 68.3125 C10.35192871 67.4932605 10.35192871 67.4932605 9.18066406 66.6574707 C4.32554694 63.13081222 -0.08369394 59.65334686 -3.625 54.75 C-4.97372834 52.70287125 -4.97372834 52.70287125 -8 52 C-9.4296875 50.546875 -9.4296875 50.546875 -10.875 48.75 C-12.68980235 46.55078139 -14.47815761 44.52184239 -16.5 42.5 C-23.16883117 35.83116883 -23.16883117 35.83116883 -25 33 C-25 29.33989318 -24.05221355 28.07832032 -22 25 C-21.34 25 -20.68 25 -20 25 C-19.773125 24.278125 -19.54625 23.55625 -19.3125 22.8125 C-17.72514618 19.41102753 -15.7130647 17.58974357 -13 15 C-11.41809752 13.13825237 -9.86754228 11.25561301 -8.33203125 9.35546875 C-7.89246094 8.90816406 -7.45289063 8.46085937 -7 8 C-6.34 8 -5.68 8 -5 8 C-4.731875 7.236875 -4.46375 6.47375 -4.1875 5.6875 C-3.05575888 3.12619116 -2.08776599 1.80307062 0 0 Z " fill="#EB6225" transform="translate(275,253)"/>
<path d="M0 0 C0.495 0.99 0.495 0.99 1 2 C-30.68 2 -62.36 2 -95 2 C-95 12.23 -95 22.46 -95 33 C-62.66 32.67 -30.32 32.34 3 32 C3.66 30.02 4.32 28.04 5 26 C6.32 26 7.64 26 9 26 C9 26.66 9 27.32 9 28 C8.34 28 7.68 28 7 28 C6.731875 28.78375 6.46375 29.5675 6.1875 30.375 C5 33 5 33 2 35 C0.10035419 35.24609566 0.10035419 35.24609566 -2.08122253 35.24050903 C-2.90993362 35.24325836 -3.73864471 35.24600769 -4.59246826 35.24884033 C-5.49805481 35.24164978 -6.40364136 35.23445923 -7.33666992 35.22705078 C-8.29295792 35.22734283 -9.24924591 35.22763489 -10.23451233 35.22793579 C-13.39992298 35.22654085 -16.56509915 35.2109718 -19.73046875 35.1953125 C-21.92336397 35.19158296 -24.11626085 35.18873571 -26.30915833 35.18673706 C-32.08450918 35.17909599 -37.85975965 35.15944337 -43.6350708 35.1373291 C-49.52688234 35.11688091 -55.41871009 35.10773754 -61.31054688 35.09765625 C-72.87374915 35.07619796 -84.43685053 35.04101191 -96 35 C-96 23.78 -96 12.56 -96 1 C-48.48 0.505 -48.48 0.505 0 0 Z " fill="#F2B699" transform="translate(202,224)"/>
<path d="M0 0 C0.99 0.33 1.98 0.66 3 1 C2.34 1 1.68 1 1 1 C1 1.66 1 2.32 1 3 C-0.98 3.99 -2.96 4.98 -5 6 C-4.505 8.475 -4.505 8.475 -4 11 C-4.66 10.855625 -5.32 10.71125 -6 10.5625 C-12.64356695 8.94808072 -12.64356695 8.94808072 -19 10 C-28.74437937 10.56113813 -37.71870484 10.36772697 -47 7 C-47 6.34 -47 5.68 -47 5 C-48.65 5 -50.3 5 -52 5 C-52 4.34 -52 3.68 -52 3 C-48.23457689 3.48069231 -44.66619961 4.08160029 -41 5.0625 C-31.94390264 7.1214076 -22.28896495 6.63904204 -13.296875 4.51171875 C-9.56329699 3.67991821 -5.80408667 3.36813742 -2 3 C-2 2.34 -2 1.68 -2 1 C-1.34 0.67 -0.68 0.34 0 0 Z " fill="#E16A36" transform="translate(388,301)"/>
<path d="M0 0 C-5.625 3 -5.625 3 -9 3 C-9 3.66 -9 4.32 -9 5 C-9.79664063 5.19335938 -10.59328125 5.38671875 -11.4140625 5.5859375 C-17.83490472 7.13369456 -17.83490472 7.13369456 -24.125 9.125 C-38.62476407 13.53797167 -56.29362497 11.46205382 -71 9 C-71 8.67 -71 8.34 -71 8 C-56.15 8 -41.3 8 -26 8 C-26 7.34 -26 6.68 -26 6 C-20.70769231 2.92307692 -20.70769231 2.92307692 -17.125 3.3125 C-16.42375 3.539375 -15.7225 3.76625 -15 4 C-15 3.34 -15 2.68 -15 2 C-13.06524329 1.46906676 -11.12706845 0.95057683 -9.1875 0.4375 C-8.10855469 0.14746094 -7.02960938 -0.14257812 -5.91796875 -0.44140625 C-3 -1 -3 -1 0 0 Z " fill="#EFA683" transform="translate(408,337)"/>
<path d="M0 0 C0.99 0.495 0.99 0.495 2 1 C2.52734375 2.890625 2.52734375 2.890625 2.9375 5.25 C3.51309398 8.13250215 3.97249995 9.95416659 5.5 12.5 C7.37224784 15.62041307 7.85418038 18.55166619 8.47265625 22.109375 C8.64667969 22.73328125 8.82070313 23.3571875 9 24 C9.66 24.33 10.32 24.66 11 25 C12.06261379 26.88267444 13.05219228 28.80699417 14 30.75 C14.515625 31.79671875 15.03125 32.8434375 15.5625 33.921875 C16.80707766 36.58689455 17.94313169 39.25620727 19 42 C19.99 42 20.98 42 22 42 C22.33 43.65 22.66 45.3 23 47 C23.66 47 24.32 47 25 47 C26.37701298 48.28817344 27.70644173 49.62804426 29 51 C29.556875 51.515625 30.11375 52.03125 30.6875 52.5625 C32 54 32 54 33 57 C32.01 56.67 31.02 56.34 30 56 C30 55.34 30 54.68 30 54 C29.01 54 28.02 54 27 54 C25.24609375 52.3203125 25.24609375 52.3203125 23.4375 50.125 C22.83808594 49.40570313 22.23867188 48.68640625 21.62109375 47.9453125 C20.81865234 46.98238281 20.81865234 46.98238281 20 46 C19.34 45.34 18.68 44.68 18 44 C18 43.01 18 42.02 18 41 C17.34 41 16.68 41 16 41 C15.34 39.35 14.68 37.7 14 36 C13.34 36 12.68 36 12 36 C0.77333333 12.77333333 0.77333333 12.77333333 0 0 Z " fill="#E99169" transform="translate(36,267)"/>
<path d="M0 0 C1.1287504 3.55122241 1.00114423 6.73306437 0.875 10.4375 C0.79883771 22.64885404 4.2910414 32.7145456 9.75 43.4375 C11 46 11 46 11 48 C11.66 48 12.32 48 13 48 C13.99 49.98 14.98 51.96 16 54 C12.17418032 53.46863616 9.81869279 52.67775815 7 50 C6.390625 47.51953125 6.390625 47.51953125 6.25 44.8125 C6.19328125 43.91144531 6.1365625 43.01039063 6.078125 42.08203125 C6.03945312 41.05142578 6.03945312 41.05142578 6 40 C5.34 40 4.68 40 4 40 C3.2053846 37.50090425 2.41425597 35.00078857 1.625 32.5 C1.40328125 31.80390625 1.1815625 31.1078125 0.953125 30.390625 C-3.30205987 16.87415541 -3.30205987 16.87415541 -3.125 10.5 C-3.10695313 9.6440625 -3.08890625 8.788125 -3.0703125 7.90625 C-3.04710938 7.2771875 -3.02390625 6.648125 -3 6 C-2.34 6 -1.68 6 -1 6 C-0.67 4.02 -0.34 2.04 0 0 Z " fill="#EC9D7D" transform="translate(73,234)"/>
<path d="M0 0 C-0.33 0.66 -0.66 1.32 -1 2 C-3.64860427 2.59355614 -6.29197322 2.74209269 -9 3 C-9 3.66 -9 4.32 -9 5 C-12 7 -12 7 -15.4375 7.4375 C-19.09851451 8.01555492 -20.20515309 8.78339728 -23 11 C-24.32 11 -25.64 11 -27 11 C-27.268125 11.78375 -27.53625 12.5675 -27.8125 13.375 C-29 16 -29 16 -32 18 C-34.33199388 18.07905064 -36.66832622 18.08798769 -39 18 C-39.33 18.99 -39.66 19.98 -40 21 C-41.65 21.33 -43.3 21.66 -45 22 C-39.69297082 15.9609668 -32.38110835 11.16779069 -25 8 C-24.01 8 -23.02 8 -22 8 C-22 7.34 -22 6.68 -22 6 C-21.19175781 5.73445312 -20.38351563 5.46890625 -19.55078125 5.1953125 C-18.48214844 4.84210938 -17.41351563 4.48890625 -16.3125 4.125 C-15.25675781 3.77695313 -14.20101562 3.42890625 -13.11328125 3.0703125 C-11.1489463 2.39499534 -9.20059668 1.66921242 -7.28125 0.875 C-4.71410355 -0.10965891 -2.72623432 -0.15578482 0 0 Z " fill="#ECA482" transform="translate(113,148)"/>
<path d="M0 0 C0.66 0 1.32 0 2 0 C2 0.66 2 1.32 2 2 C2.99 2.33 3.98 2.66 5 3 C11.30273925 10.3839623 21 22.75482092 21 33 C21.66 33 22.32 33 23 33 C23.33 35.64 23.66 38.28 24 41 C21.22017379 39.6100869 21.12536659 37.81341647 20 35 C19.34 34.67 18.68 34.34 18 34 C17.61250787 31.67504723 17.28241883 29.3400417 17 27 C16.67 26.01 16.34 25.02 16 24 C15.34 24 14.68 24 14 24 C11 17.375 11 17.375 11 14 C10.34 14 9.68 14 9 14 C9 13.34 9 12.68 9 12 C7.68 12.33 6.36 12.66 5 13 C5 11.68 5 10.36 5 9 C4.34 8.67 3.68 8.34 3 8 C3 8.99 3 9.98 3 11 C2.34 11 1.68 11 1 11 C1 9.68 1 8.36 1 7 C1.66 6.67 2.32 6.34 3 6 C2.04134491 3.66924071 2.04134491 3.66924071 -1 2 C-0.67 1.34 -0.34 0.68 0 0 Z " fill="#E79B79" transform="translate(433,179)"/>
<path d="M0 0 C1.26459439 3.79378317 0.54453826 5.75281596 -0.375 9.625 C-2.95776052 20.55949081 -3.26044912 31.39401461 -3.5625 42.5625 C-3.60578362 44.06316078 -3.6494007 45.56381197 -3.69335938 47.06445312 C-3.79941797 50.70953299 -3.90096257 54.35472182 -4 58 C-4.33 58 -4.66 58 -5 58 C-6.39002365 50.75201954 -7.19420114 43.68375093 -7.1875 36.3125 C-7.18814453 35.61769531 -7.18878906 34.92289063 -7.18945312 34.20703125 C-7.13558966 29.27117932 -7.13558966 29.27117932 -6 27 C-5.74894786 25.56426192 -5.53869715 24.12124022 -5.3515625 22.67578125 C-5.23296875 21.81146484 -5.114375 20.94714844 -4.9921875 20.05664062 C-4.75009975 18.24742102 -4.51300327 16.43752554 -4.28125 14.62695312 C-3.5346553 9.26179651 -2.38542999 4.87080817 0 0 Z " fill="#EA9E79" transform="translate(40,209)"/>
<path d="M0 0 C-5.10334017 1.905247 -9.46342706 3.42589023 -15 3 C-15 3.66 -15 4.32 -15 5 C-22.37373863 5.89632321 -29.63856376 6.15313873 -37.0625 6.125 C-38.08666016 6.12886719 -39.11082031 6.13273437 -40.16601562 6.13671875 C-46.18346623 6.12902872 -52.05262091 5.96180747 -58 5 C-58.33 4.34 -58.66 3.68 -59 3 C-57.94723877 3.01571045 -56.89447754 3.0314209 -55.80981445 3.04760742 C-51.84195848 3.10258827 -47.87413492 3.13659349 -43.90600586 3.16479492 C-42.20021878 3.17972839 -40.49446904 3.20008266 -38.78881836 3.22631836 C-28.37555892 3.38228788 -19.10409132 2.84610505 -9 0 C-5.55423958 -0.79498416 -3.38694122 -1.12898041 0 0 Z " fill="#ECA787" transform="translate(174,341)"/>
<path d="M0 0 C0 0.33 0 0.66 0 1 C-0.96413818 0.99476318 -1.92827637 0.98952637 -2.92163086 0.98413086 C-6.48672564 0.96607882 -10.05181636 0.95456726 -13.61694336 0.94506836 C-15.16219766 0.9400286 -16.70744716 0.9331968 -18.25268555 0.92456055 C-20.46925029 0.91247924 -22.68575218 0.90676827 -24.90234375 0.90234375 C-25.5971434 0.89718246 -26.29194305 0.89202118 -27.00779724 0.88670349 C-28.6722933 0.88650723 -30.33665499 0.93810871 -32 1 C-32.33 1.33 -32.66 1.66 -33 2 C-34.85174706 2.15786308 -36.7090911 2.25107356 -38.56640625 2.31640625 C-40.2534668 2.37924805 -40.2534668 2.37924805 -41.97460938 2.44335938 C-43.75061523 2.50233398 -43.75061523 2.50233398 -45.5625 2.5625 C-46.75037109 2.60568359 -47.93824219 2.64886719 -49.16210938 2.69335938 C-52.10794784 2.79983546 -55.0538743 2.90184841 -58 3 C-41.25245547 -5.71756674 -17.97541962 -2.28259297 0 0 Z " fill="#EA9B78" transform="translate(380,147)"/>
<path d="M0 0 C0 0.33 0 0.66 0 1 C-0.85464844 1.06058594 -1.70929688 1.12117187 -2.58984375 1.18359375 C-4.24693359 1.30927734 -4.24693359 1.30927734 -5.9375 1.4375 C-7.03964844 1.51871094 -8.14179688 1.59992188 -9.27734375 1.68359375 C-11.91109903 1.70418084 -11.91109903 1.70418084 -13 3 C-14.87330539 3.31256956 -16.74757432 3.6203174 -18.62597656 3.90063477 C-25.65143021 4.96246664 -31.68872543 6.21777134 -37.921875 9.81640625 C-40.2104154 11.11984185 -42.54023994 12.06683928 -45 13 C-44.34 11.35 -43.68 9.7 -43 8 C-41.68 8 -40.36 8 -39 8 C-38.67 7.01 -38.34 6.02 -38 5 C-34.535 4.505 -34.535 4.505 -31 4 C-31 3.34 -31 2.68 -31 2 C-20.57904782 0.46629876 -10.53922138 -0.27256607 0 0 Z " fill="#E3784C" transform="translate(144,180)"/>
<path d="M0 0 C2 2 2 2 2 8 C-11.86 8 -25.72 8 -40 8 C-40.33 6.02 -40.66 4.04 -41 2 C-39.02 2.99 -39.02 2.99 -37 4 C-37 4.66 -37 5.32 -37 6 C-24.79 6 -12.58 6 0 6 C0 4.02 0 2.04 0 0 Z " fill="#EBAA8A" transform="translate(457,220)"/>
<path d="M0 0 C1 2 1 2 0.375 4.25 C-1.9633545 8.92670901 -5.94586883 14.88940685 -11.0625 16.75 C-14.14073297 18.73595675 -14.23792762 21.57067428 -15 25 C-16.32 24.67 -17.64 24.34 -19 24 C-19 23.34 -19 22.68 -19 22 C-18.34 22 -17.68 22 -17 22 C-16.34 20.02 -15.68 18.04 -15 16 C-14.34 16 -13.68 16 -13 16 C-12.814375 15.1028125 -12.814375 15.1028125 -12.625 14.1875 C-12 12 -12 12 -10 9 C-9.34 9 -8.68 9 -8 9 C-8 8.34 -8 7.68 -8 7 C-6.25 5.2734375 -6.25 5.2734375 -4 3.375 C-3.2575 2.74335938 -2.515 2.11171875 -1.75 1.4609375 C-0.88375 0.73777344 -0.88375 0.73777344 0 0 Z " fill="#E8794A" transform="translate(67,170)"/>
<path d="M0 0 C0.66 0.33 1.32 0.66 2 1 C1.34 2.32 0.68 3.64 0 5 C-0.66 5 -1.32 5 -2 5 C-2.12375 5.7425 -2.2475 6.485 -2.375 7.25 C-2.95486701 9.80141485 -3.73708739 11.7267573 -5 14 C-5.99 14 -6.98 14 -8 14 C-8.33 14.99 -8.66 15.98 -9 17 C-10.32 17 -11.64 17 -13 17 C-13.2475 17.928125 -13.495 18.85625 -13.75 19.8125 C-15.06974749 23.17785609 -15.90515949 24.25915221 -19 26 C-19.66 26 -20.32 26 -21 26 C-21 25.34 -21 24.68 -21 24 C-20.34 24 -19.68 24 -19 24 C-18.79375 23.319375 -18.5875 22.63875 -18.375 21.9375 C-16.53509873 18.00680183 -13.93321607 15.16383748 -11 12 C-10.52691406 11.48566406 -10.05382812 10.97132813 -9.56640625 10.44140625 C-8.42564601 9.24648528 -7.21779338 8.1163106 -6 7 C-5.34 7 -4.68 7 -4 7 C-3.71125 6.401875 -3.4225 5.80375 -3.125 5.1875 C-2 3 -2 3 0 0 Z " fill="#E98C66" transform="translate(274,183)"/>
<path d="M0 0 C3.21222785 3.85467342 5.59566654 6.77616597 6.5 11.75 C5.75952169 16.56310902 3.10135005 19.36080321 0 23 C-0.57234375 23.68191406 -1.1446875 24.36382812 -1.734375 25.06640625 C-3.14089438 26.72408981 -4.56842074 28.36390942 -6 30 C-6.33 28.68 -6.66 27.36 -7 26 C-6.34 26 -5.68 26 -5 26 C-5 25.34 -5 24.68 -5 24 C-4.34 24 -3.68 24 -3 24 C-2.814375 22.7934375 -2.814375 22.7934375 -2.625 21.5625 C-2.41875 20.716875 -2.2125 19.87125 -2 19 C-1.34 18.67 -0.68 18.34 0 18 C0.40632091 16.01354224 0.72949547 14.00946222 1 12 C1.226875 11.113125 1.45375 10.22625 1.6875 9.3125 C2.29620858 6.72808857 2.29620858 6.72808857 0 4 C0 2.68 0 1.36 0 0 Z " fill="#E58E64" transform="translate(233,201)"/>
<path d="M0 0 C6.35051546 -0.36637589 6.35051546 -0.36637589 9.4375 1.375 C11 3 11 3 11 5 C12.98 4.67 14.96 4.34 17 4 C19 7 19 7 19 10 C19.94978897 12.15028304 19.94978897 12.15028304 21 14 C21.66 14 22.32 14 23 14 C23 14.99 23 15.98 23 17 C23.66 17 24.32 17 25 17 C25 18.32 25 19.64 25 21 C24.34 21 23.68 21 23 21 C22.505 19.989375 22.01 18.97875 21.5 17.9375 C18.49087831 12.64187724 13.82543812 7.94181271 8 6 C8 5.34 8 4.68 8 4 C7.05125 3.71125 6.1025 3.4225 5.125 3.125 C2 2 2 2 0 0 Z " fill="#E66934" transform="translate(171,190)"/>
<path d="M0 0 C0.33 0.99 0.66 1.98 1 3 C0.01 3.33 -0.98 3.66 -2 4 C-3.22969878 7.51190809 -3.22969878 7.51190809 -4 11 C-4.66 11 -5.32 11 -6 11 C-6.33 12.65 -6.66 14.3 -7 16 C-7.99 16 -8.98 16 -10 16 C-10.33 17.98 -10.66 19.96 -11 22 C-12.98 22.33 -14.96 22.66 -17 23 C-17 23.66 -17 24.32 -17 25 C-18.32 25.33 -19.64 25.66 -21 26 C-19.74480642 22.23441927 -18.08137821 21.4510963 -15 19 C-11.89048637 15.52030618 -9.30074387 12.05369158 -7 8 C-6.34 7.01 -5.68 6.02 -5 5 C-4.34 5 -3.68 5 -3 5 C-2.690625 4.360625 -2.38125 3.72125 -2.0625 3.0625 C-1 1 -1 1 0 0 Z " fill="#E78B60" transform="translate(219,250)"/>
<path d="M0 0 C1.72974441 0.00015918 3.45949355 0.0058569 5.18920898 0.01586914 C6.09783188 0.01728409 7.00645477 0.01869904 7.94261169 0.02015686 C10.85687494 0.02577346 13.77106254 0.03832874 16.68530273 0.05102539 C18.65600475 0.05603825 20.62670797 0.06060153 22.59741211 0.06469727 C27.43923832 0.07574828 32.28100768 0.09302401 37.12280273 0.11352539 C37.17675752 1.73816381 37.21557468 3.3633108 37.24780273 4.98852539 C37.27100586 5.89344727 37.29420898 6.79836914 37.31811523 7.73071289 C37.12280273 10.11352539 37.12280273 10.11352539 35.12280273 12.11352539 C35.12280273 8.48352539 35.12280273 4.85352539 35.12280273 1.11352539 C22.58280273 1.11352539 10.04280273 1.11352539 -2.87719727 1.11352539 C-2.87719727 2.76352539 -2.87719727 4.41352539 -2.87719727 6.11352539 C-4.25219727 8.42602539 -4.25219727 8.42602539 -5.87719727 10.11352539 C-6.53719727 10.11352539 -7.19719727 10.11352539 -7.87719727 10.11352539 C-7.40169166 8.63317775 -6.92168511 7.15427518 -6.43969727 5.67602539 C-6.17286133 4.85231445 -5.90602539 4.02860352 -5.63110352 3.17993164 C-4.32492206 -0.40022376 -4.22317245 0.12365564 0 0 Z " fill="#E69873" transform="translate(421.877197265625,263.886474609375)"/>
<path d="M0 0 C-5.625 3 -5.625 3 -9 3 C-9 3.66 -9 4.32 -9 5 C-10.89385437 5.50744423 -12.79018666 6.00564574 -14.6875 6.5 C-15.74324219 6.7784375 -16.79898437 7.056875 -17.88671875 7.34375 C-20.71142672 7.9391715 -23.12836708 8.12786492 -26 8 C-26 7.34 -26 6.68 -26 6 C-20.70769231 2.92307692 -20.70769231 2.92307692 -17.125 3.3125 C-16.42375 3.539375 -15.7225 3.76625 -15 4 C-15 3.34 -15 2.68 -15 2 C-13.06524329 1.46906676 -11.12706845 0.95057683 -9.1875 0.4375 C-8.10855469 0.14746094 -7.02960938 -0.14257812 -5.91796875 -0.44140625 C-3 -1 -3 -1 0 0 Z " fill="#E07442" transform="translate(408,337)"/>
<path d="M0 0 C4.20763224 1.5027258 5.8027758 4.23332995 8 8 C8 8.66 8 9.32 8 10 C8.99 10 9.98 10 11 10 C11.33 11.65 11.66 13.3 12 15 C12.66 15 13.32 15 14 15 C15.37701298 16.28817344 16.70644173 17.62804426 18 19 C18.556875 19.515625 19.11375 20.03125 19.6875 20.5625 C21 22 21 22 22 25 C21.01 24.67 20.02 24.34 19 24 C19 23.34 19 22.68 19 22 C18.01 22 17.02 22 16 22 C14.24609375 20.3203125 14.24609375 20.3203125 12.4375 18.125 C11.83808594 17.40570313 11.23867188 16.68640625 10.62109375 15.9453125 C10.08613281 15.30335938 9.55117188 14.66140625 9 14 C8.34 13.34 7.68 12.68 7 12 C7 11.01 7 10.02 7 9 C6.34 9 5.68 9 5 9 C4.34 7.35 3.68 5.7 3 4 C2.34 4 1.68 4 1 4 C0.67 2.68 0.34 1.36 0 0 Z " fill="#E79773" transform="translate(47,299)"/>
<path d="M0 0 C0.99 0.99 1.98 1.98 3 3 C2 5 2 5 -0.4375 5.875 C-3.54192806 7.23791964 -3.60764664 8.0332163 -5 11 C-6.78188608 13.57093241 -8.65659713 15.92015833 -11 18 C-13.875 18.4375 -13.875 18.4375 -16 18 C-16 18.66 -16 19.32 -16 20 C-16.99 19.67 -17.98 19.34 -19 19 C-18.34 19 -17.68 19 -17 19 C-17 18.34 -17 17.68 -17 17 C-16.1028125 16.61134766 -16.1028125 16.61134766 -15.1875 16.21484375 C-12.83500635 14.9083696 -11.65903807 13.65883887 -10 11.5625 C-7.85105541 8.9348032 -5.73056308 7.02263932 -3 5 C-2.67 4.01 -2.34 3.02 -2 2 C-1.34 2 -0.68 2 0 2 C0 1.34 0 0.68 0 0 Z M4 1 C4.66 1.66 5.32 2.32 6 3 C5.01 2.67 4.02 2.34 3 2 C3.33 1.67 3.66 1.34 4 1 Z " fill="#E69B77" transform="translate(410,281)"/>
<path d="M0 0 C0.33 0.66 0.66 1.32 1 2 C1.99 2.33 2.98 2.66 4 3 C5.63097472 4.7295656 7.18567298 6.53217844 8.6875 8.375 C9.49574219 9.35210937 10.30398438 10.32921875 11.13671875 11.3359375 C13 14 13 14 13 17 C11 15.625 11 15.625 9 14 C9 13.34 9 12.68 9 12 C7.68 11.67 6.36 11.34 5 11 C5 9.68 5 8.36 5 7 C1.7 7.33 -1.6 7.66 -5 8 C-3.8141763 4.62496331 -2.72426311 2.35277269 0 0 Z " fill="#EA9978" transform="translate(275,253)"/>
<path d="M0 0 C0.66 0.33 1.32 0.66 2 1 C-2.28370642 8.90838108 -6.88941266 15.43519252 -14 21 C-15.35099103 22.31543863 -16.69205669 23.64175118 -18 25 C-18.33 24.34 -18.66 23.68 -19 23 C-18.25 20.9375 -18.25 20.9375 -17 19 C-16.01 18.67 -15.02 18.34 -14 18 C-13.67 17.01 -13.34 16.02 -13 15 C-11.68 15 -10.36 15 -9 15 C-9 13.35 -9 11.7 -9 10 C-8.01 10 -7.02 10 -6 10 C-5.34 8.02 -4.68 6.04 -4 4 C-3.01 4 -2.02 4 -1 4 C-0.67 2.68 -0.34 1.36 0 0 Z " fill="#E89973" transform="translate(445,300)"/>
<path d="M0 0 C2.53910197 0.38520564 3.72751123 0.70097943 5.484375 2.62890625 C5.90203125 3.26699219 6.3196875 3.90507812 6.75 4.5625 C7.17796875 5.20316406 7.6059375 5.84382813 8.046875 6.50390625 C8.36140625 6.99761719 8.6759375 7.49132812 9 8 C10.65 7.67 12.3 7.34 14 7 C15.66489182 10.92438786 16.87204037 14.89100419 18 19 C17.401875 18.360625 16.80375 17.72125 16.1875 17.0625 C14.09189663 14.79689611 14.09189663 14.79689611 11 14 C9.5703125 12.546875 9.5703125 12.546875 8.125 10.75 C6.21921228 8.42970345 4.30004085 6.25749626 2.125 4.1875 C0 2 0 2 0 0 Z " fill="#EA845A" transform="translate(256,291)"/>
<path d="M0 0 C0.99 0.33 1.98 0.66 3 1 C2.34 1 1.68 1 1 1 C1 1.66 1 2.32 1 3 C-0.98 3.99 -2.96 4.98 -5 6 C-4.67 7.65 -4.34 9.3 -4 11 C-7.55780196 10.39009109 -10.6828589 9.4216319 -14 8 C-13 5 -13 5 -10.8125 3.8125 C-7.74609689 2.92665021 -5.17561845 2.85229682 -2 3 C-2 2.34 -2 1.68 -2 1 C-1.34 0.67 -0.68 0.34 0 0 Z " fill="#E97D51" transform="translate(388,301)"/>
<path d="M0 0 C2.475 0.495 2.475 0.495 5 1 C5 1.66 5 2.32 5 3 C5.84820312 3.22429687 6.69640625 3.44859375 7.5703125 3.6796875 C11.64079588 5.24668452 14.51037213 7.40741595 17.875 10.125 C18.46796875 10.59292969 19.0609375 11.06085938 19.671875 11.54296875 C21.12050774 12.68785592 22.56110099 13.84290317 24 15 C23.01 15.495 23.01 15.495 22 16 C19 15 19 15 17 12 C15.67405895 11.63837971 14.34061543 11.30271961 13 11 C12.67 10.34 12.34 9.68 12 9 C11.01 8.67 10.02 8.34 9 8 C8.01 7.67 7.02 7.34 6 7 C5.67 6.34 5.34 5.68 5 5 C2.97536745 4.34786708 2.97536745 4.34786708 1 4 C0.67 2.68 0.34 1.36 0 0 Z " fill="#E8946F" transform="translate(404,157)"/>
<path d="M0 0 C9.14333557 2.44910774 16.8912129 7.25412092 25 12 C25 12.66 25 13.32 25 14 C25.99 14.33 26.98 14.66 28 15 C27.01 15.495 27.01 15.495 26 16 C23.71741367 14.92325298 21.5643566 13.80453884 19.375 12.5625 C18.76398438 12.22412109 18.15296875 11.88574219 17.5234375 11.53710938 C16.011647 10.69853808 14.50529601 9.85017423 13 9 C13 8.34 13 7.68 13 7 C10.69 6.34 8.38 5.68 6 5 C6 4.34 6 3.68 6 3 C3.03 2.505 3.03 2.505 0 2 C0 1.34 0 0.68 0 0 Z " fill="#E79772" transform="translate(179,152)"/>
<path d="M0 0 C0 0.66 0 1.32 0 2 C-0.99 2.66 -1.98 3.32 -3 4 C-4.19232613 6.05003955 -4.19232613 6.05003955 -5 8 C-5.99 8 -6.98 8 -8 8 C-8 8.66 -8 9.32 -8 10 C-10.25 11.75 -10.25 11.75 -13 13 C-15.171875 12.078125 -15.171875 12.078125 -17 11 C-12.91193811 7.15383526 -9.59282842 4.36410449 -4 3 C-4 2.34 -4 1.68 -4 1 C-2 0 -2 0 0 0 Z " fill="#E67A4A" transform="translate(308,157)"/>
<path d="M0 0 C0 4.09449281 -1.60436917 5.06330612 -4.375 8 C-6.82974174 10.61839119 -9.00653768 13.00980653 -11 16 C-11.66 16 -12.32 16 -13 16 C-13.33 16.66 -13.66 17.32 -14 18 C-13.67 15.03 -13.34 12.06 -13 9 C-11 10 -11 10 -10 11 C-10 10.01 -10 9.02 -10 8 C-8.68 7.67 -7.36 7.34 -6 7 C-6 5.68 -6 4.36 -6 3 C-4.02 2.01 -2.04 1.02 0 0 Z " fill="#E9916C" transform="translate(297,217)"/>
<path d="M0 0 C0.66 0.33 1.32 0.66 2 1 C1.34 1.66 0.68 2.32 0 3 C-0.309375 3.845625 -0.61875 4.69125 -0.9375 5.5625 C-1.288125 6.366875 -1.63875 7.17125 -2 8 C-2.99 8.33 -3.98 8.66 -5 9 C-4.25640327 14.55053286 -4.25640327 14.55053286 -3 20 C-6.44004627 18.85331791 -7.26635169 18.12056696 -9 15 C-8.7434556 11.49389321 -7.9814066 9.9721099 -6 7 C-5.34 7 -4.68 7 -4 7 C-3.71125 6.21625 -3.4225 5.4325 -3.125 4.625 C-2 2 -2 2 0 0 Z " fill="#E18E67" transform="translate(259,271)"/>
<path d="M0 0 C-0.33 0.99 -0.66 1.98 -1 3 C-3.4375 4.125 -3.4375 4.125 -6 5 C-6.99 5.495 -6.99 5.495 -8 6 C-9.4509942 6.01599436 -10.90308507 5.9658149 -12.3515625 5.87890625 C-13.20234375 5.83056641 -14.053125 5.78222656 -14.9296875 5.73242188 C-15.81914062 5.67634766 -16.70859375 5.62027344 -17.625 5.5625 C-18.5221875 5.51029297 -19.419375 5.45808594 -20.34375 5.40429688 C-22.56284012 5.2744565 -24.78149871 5.13948661 -27 5 C-27 4.67 -27 4.34 -27 4 C-25.24623047 3.81824219 -25.24623047 3.81824219 -23.45703125 3.6328125 C-21.90881329 3.46391599 -20.36063839 3.29462432 -18.8125 3.125 C-17.65911133 3.00705078 -17.65911133 3.00705078 -16.48242188 2.88671875 C-10.77340323 2.24966088 -5.6970237 -0.32554421 0 0 Z " fill="#EAA486" transform="translate(158,304)"/>
<path d="M0 0 C0.66 0.99 1.32 1.98 2 3 C1.67 3.598125 1.34 4.19625 1 4.8125 C-0.20787988 7.05386471 -0.20787988 7.05386471 0 10 C-3.96 10.99 -7.92 11.98 -12 13 C-11.319375 12.34 -10.63875 11.68 -9.9375 11 C-6.43274653 7.50531766 -3.22778212 3.74869221 0 0 Z " fill="#E88559" transform="translate(197,276)"/>
<path d="M0 0 C0.64453125 1.78125 0.64453125 1.78125 1 4 C0.07421875 5.78125 0.07421875 5.78125 -1.3125 7.5 C-2.82512391 9.43947394 -3.99681258 10.9928283 -5 13.25 C-6.46874058 15.82029601 -8.37203327 16.7517158 -11 18 C-11.66 17.67 -12.32 17.34 -13 17 C-12.21654285 15.82780457 -11.42297164 14.66236332 -10.625 13.5 C-10.18414062 12.8503125 -9.74328125 12.200625 -9.2890625 11.53125 C-8.65097656 10.77328125 -8.65097656 10.77328125 -8 10 C-7.34 10 -6.68 10 -6 10 C-5.566875 8.7934375 -5.566875 8.7934375 -5.125 7.5625 C-4 5 -4 5 -2 4 C-0.86649466 1.98330173 -0.86649466 1.98330173 0 0 Z " fill="#EA9771" transform="translate(233,231)"/>
<path d="M0 0 C3.21365891 1.10815825 3.9914224 1.98529554 5.75 5 C7 8 7 8 7 10 C7.66 10 8.32 10 9 10 C9.99 11.98 10.98 13.96 12 16 C8.17418032 15.46863616 5.81869279 14.67775815 3 12 C2.390625 9.51953125 2.390625 9.51953125 2.25 6.8125 C2.19328125 5.91144531 2.1365625 5.01039063 2.078125 4.08203125 C2.05234375 3.39496094 2.0265625 2.70789063 2 2 C1.34 2 0.68 2 0 2 C0 1.34 0 0.68 0 0 Z " fill="#E6855E" transform="translate(77,272)"/>
<path d="M0 0 C0.66 0 1.32 0 2 0 C0.99477857 3.17031373 -0.091154 6.2060873 -1.4375 9.25 C-3.39458748 13.69338738 -4.67696235 18.33652687 -6 23 C-8.1015625 19.3984375 -8.1015625 19.3984375 -7.1875 15.8125 C-6 13 -6 13 -5 12 C-4.76807135 10.48530552 -4.58784762 8.96245438 -4.4375 7.4375 C-4.35371094 6.61121094 -4.26992187 5.78492188 -4.18359375 4.93359375 C-4.12300781 4.29550781 -4.06242187 3.65742188 -4 3 C-3.01 3 -2.02 3 -1 3 C-0.67 2.01 -0.34 1.02 0 0 Z " fill="#E78562" transform="translate(81,209)"/>
<path d="M0 0 C1.79158489 -0.02696365 3.58328473 -0.04637917 5.375 -0.0625 C6.37273437 -0.07410156 7.37046875 -0.08570313 8.3984375 -0.09765625 C11 0 11 0 13 1 C13 1.66 13 2.32 13 3 C14.2375 3.0825 15.475 3.165 16.75 3.25 C19.98882964 3.63475459 20.87907883 3.90024003 23.5 6.0625 C23.995 6.701875 24.49 7.34125 25 8 C21.90588074 7.51654387 19.36031241 6.74188045 16.4375 5.5625 C11.14097073 3.48861906 5.60573418 2.79414568 0 2 C0 1.34 0 0.68 0 0 Z " fill="#EBA281" transform="translate(146,181)"/>
<path d="M0 0 C-1 2 -1 2 -3.75 3.1875 C-9.3316724 4.66740062 -15.37281047 3.9759042 -21 3 C-21.66 2.34 -22.32 1.68 -23 1 C-7.25512528 -0.14806378 -7.25512528 -0.14806378 0 0 Z " fill="#EC956F" transform="translate(375,307)"/>
<path d="M0 0 C3.73554859 1.24518286 5.22621061 3.22621061 8 6 C9.093125 6.721875 10.18625 7.44375 11.3125 8.1875 C12.199375 8.785625 13.08625 9.38375 14 10 C14 10.66 14 11.32 14 12 C16.31 12.66 18.62 13.32 21 14 C21 14.33 21 14.66 21 15 C19.02 15 17.04 15 15 15 C15 14.34 15 13.68 15 13 C14.34 13 13.68 13 13 13 C13 12.34 13 11.68 13 11 C12.05125 10.896875 11.1025 10.79375 10.125 10.6875 C7 10 7 10 5 7 C4.01 6.67 3.02 6.34 2 6 C0.8125 2.9375 0.8125 2.9375 0 0 Z " fill="#E9A27E" transform="translate(89,288)"/>
<path d="M0 0 C2.64 0.33 5.28 0.66 8 1 C8.33 2.32 8.66 3.64 9 5 C9.763125 4.79375 10.52625 4.5875 11.3125 4.375 C14 4 14 4 17 6 C16.67 6.66 16.34 7.32 16 8 C16.99 8.33 17.98 8.66 19 9 C17.4140625 9.73828125 17.4140625 9.73828125 15 10 C12.63567427 8.81783714 10.56510911 7.63209206 8.375 6.1875 C7.78976562 5.81818359 7.20453125 5.44886719 6.6015625 5.06835938 C4.18345407 3.52376489 2.03405306 2.03405306 0 0 Z " fill="#EBA382" transform="translate(294,326)"/>
<path d="M0 0 C2.89608593 -0.05413245 5.79115195 -0.09373641 8.6875 -0.125 C9.91243164 -0.15013672 9.91243164 -0.15013672 11.16210938 -0.17578125 C15.57092929 -0.2114802 18.98731576 -0.07580814 23 2 C23 2.33 23 2.66 23 3 C21.04235617 3.19456705 19.08384679 3.38044247 17.125 3.5625 C16.03445313 3.66691406 14.94390625 3.77132812 13.8203125 3.87890625 C11 4 11 4 9 3 C9 2.34 9 1.68 9 1 C6.03 1 3.06 1 0 1 C0 0.67 0 0.34 0 0 Z " fill="#E87C4C" transform="translate(366,148)"/>
<path d="M0 0 C4.92746499 0.50973776 9.38196924 1.08520676 14 3 C14.33 3.66 14.66 4.32 15 5 C17.34907875 5.68931344 17.34907875 5.68931344 20.0625 6.125 C20.98160156 6.29257812 21.90070313 6.46015625 22.84765625 6.6328125 C23.91306641 6.81457031 23.91306641 6.81457031 25 7 C25 7.33 25 7.66 25 8 C23.22880197 7.85866501 21.45804713 7.71176792 19.6875 7.5625 C18.70136719 7.48128906 17.71523437 7.40007812 16.69921875 7.31640625 C14 7 14 7 11 6 C11 5.34 11 4.68 11 4 C9.9275 3.855625 8.855 3.71125 7.75 3.5625 C5.08337051 3.16250558 2.58600271 2.72408076 0 2 C0 1.34 0 0.68 0 0 Z " fill="#EBA27E" transform="translate(89,336)"/>
<path d="M0 0 C6.7904162 -0.73808872 11.14722978 1.76480038 17 5 C18.33015668 5.67298249 19.66238951 6.34195714 21 7 C19.58297487 6.85769192 18.1663904 6.71099254 16.75 6.5625 C15.56664062 6.44068359 15.56664062 6.44068359 14.359375 6.31640625 C12.17635361 6.02365007 10.1226818 5.57935581 8 5 C8 4.34 8 3.68 8 3 C7.05125 2.87625 6.1025 2.7525 5.125 2.625 C2 2 2 2 0 0 Z " fill="#EA9E7B" transform="translate(315,337)"/>
<path d="M0 0 C0 3.10551666 -0.5393715 4.35261084 -2 7 C-2.99 7 -3.98 7 -5 7 C-5.2475 7.928125 -5.495 8.85625 -5.75 9.8125 C-7.06974749 13.17785609 -7.90515949 14.25915221 -11 16 C-11.66 16 -12.32 16 -13 16 C-13 15.34 -13 14.68 -13 14 C-12.34 14 -11.68 14 -11 14 C-10.79375 13.319375 -10.5875 12.63875 -10.375 11.9375 C-8.03271837 6.9335347 -4.58498832 3.05665888 0 0 Z " fill="#E1986E" transform="translate(266,193)"/>
<path d="M0 0 C1.28184509 2.56369018 0.80633457 3.50599501 0.125 6.25 C-0.72860069 9.82012721 -1.44144709 13.36940612 -2 17 C-2.33 16.01 -2.66 15.02 -3 14 C-3.99 14.33 -4.98 14.66 -6 15 C-5.44894091 11.0507432 -4.61064629 7.65079826 -3 4 C-2.34 4 -1.68 4 -1 4 C-0.67 2.68 -0.34 1.36 0 0 Z " fill="#EA9067" transform="translate(47,194)"/>
<path d="M0 0 C1.32 0 2.64 0 4 0 C4 0.66 4 1.32 4 2 C4.99 2.33 5.98 2.66 7 3 C7 3.66 7 4.32 7 5 C7.99 5.33 8.98 5.66 10 6 C12.25 8.3125 12.25 8.3125 14 11 C13.75 13.3125 13.75 13.3125 13 15 C12.67 13.68 12.34 12.36 12 11 C11.01 11 10.02 11 9 11 C8.896875 10.360625 8.79375 9.72125 8.6875 9.0625 C8.460625 8.381875 8.23375 7.70125 8 7 C7.01 6.67 6.02 6.34 5 6 C3.15500602 4.12382302 1.6316401 2.07262391 0 0 Z " fill="#E9A784" transform="translate(398,200)"/>
<path d="M0 0 C0.66 0 1.32 0 2 0 C2.33773437 0.62648437 2.67546875 1.25296875 3.0234375 1.8984375 C3.46945313 2.71570313 3.91546875 3.53296875 4.375 4.375 C4.81585938 5.18710938 5.25671875 5.99921875 5.7109375 6.8359375 C6.9443893 9.10814302 6.9443893 9.10814302 9 11 C8.67 11.99 8.34 12.98 8 14 C7.67 13.01 7.34 12.02 7 11 C6.38125 11.20625 5.7625 11.4125 5.125 11.625 C4.42375 11.74875 3.7225 11.8725 3 12 C2.34 11.34 1.68 10.68 1 10 C1.33 9.67 1.66 9.34 2 9 C1.74804092 7.46797294 1.42403223 5.94742872 1.0625 4.4375 C0.86785156 3.61121094 0.67320312 2.78492188 0.47265625 1.93359375 C0.31667969 1.29550781 0.16070312 0.65742188 0 0 Z " fill="#E9916A" transform="translate(224,187)"/>
<path d="M0 0 C0.99 0.33 1.98 0.66 3 1 C1.2123833 3.1493251 -0.57982184 5.29450607 -2.375 7.4375 C-2.88289062 8.04916016 -3.39078125 8.66082031 -3.9140625 9.29101562 C-7.7734375 13.88671875 -7.7734375 13.88671875 -10 15 C-10 13.68 -10 12.36 -10 11 C-9.01 11 -8.02 11 -7 11 C-7 10.34 -7 9.68 -7 9 C-6.34 9 -5.68 9 -5 9 C-5 7.68 -5 6.36 -5 5 C-4.34 5 -3.68 5 -3 5 C-2.814375 4.0409375 -2.814375 4.0409375 -2.625 3.0625 C-2.41875 2.381875 -2.2125 1.70125 -2 1 C-1.34 0.67 -0.68 0.34 0 0 Z " fill="#E99A75" transform="translate(246,276)"/>
<path d="M0 0 C0.66 0 1.32 0 2 0 C2 0.66 2 1.32 2 2 C2.99 2.33 3.98 2.66 5 3 C7.12508244 6.18762365 7.5020163 8.26512223 8 12 C7.01 12.33 6.02 12.66 5 13 C5 11.68 5 10.36 5 9 C4.34 8.67 3.68 8.34 3 8 C3 8.99 3 9.98 3 11 C2.34 11 1.68 11 1 11 C1 9.68 1 8.36 1 7 C1.66 6.67 2.32 6.34 3 6 C2.04134491 3.66924071 2.04134491 3.66924071 -1 2 C-0.67 1.34 -0.34 0.68 0 0 Z " fill="#E8662E" transform="translate(433,179)"/>
<path d="M0 0 C0 0.33 0 0.66 0 1 C-1.28197266 1.09087891 -1.28197266 1.09087891 -2.58984375 1.18359375 C-4.24693359 1.30927734 -4.24693359 1.30927734 -5.9375 1.4375 C-7.03964844 1.51871094 -8.14179688 1.59992188 -9.27734375 1.68359375 C-11.91109903 1.70418084 -11.91109903 1.70418084 -13 3 C-15.85528607 3.400383 -18.69736487 3.7518227 -21.5625 4.0625 C-22.36880859 4.15337891 -23.17511719 4.24425781 -24.00585938 4.33789062 C-26.00347377 4.56247449 -28.0016856 4.78173236 -30 5 C-21.16023864 -0.89317424 -10.19710679 -0.37612279 0 0 Z " fill="#E8997C" transform="translate(144,180)"/>
<path d="M0 0 C-0.66 0.66 -1.32 1.32 -2 2 C-2.99 2 -3.98 2 -5 2 C-5.66 3.32 -6.32 4.64 -7 6 C-7.66 6 -8.32 6 -9 6 C-9.66 7.32 -10.32 8.64 -11 10 C-11.66 10 -12.32 10 -13 10 C-13.33 11.32 -13.66 12.64 -14 14 C-14 12.35 -14 10.7 -14 9 C-13.34 8.67 -12.68 8.34 -12 8 C-11.773125 7.236875 -11.54625 6.47375 -11.3125 5.6875 C-9.13400395 1.22676999 -4.98198253 -1.66066084 0 0 Z " fill="#EAAB8A" transform="translate(99,194)"/>
<path d="M0 0 C0.33 0.66 0.66 1.32 1 2 C-1.0625 4.5 -1.0625 4.5 -4 7 C-7.8125 7.3125 -7.8125 7.3125 -11 7 C-11.33 7.99 -11.66 8.98 -12 10 C-13.65 10.33 -15.3 10.66 -17 11 C-13.20840082 6.61596344 -9.63691577 4.45050343 -4 3 C-3.01 3 -2.02 3 -1 3 C-0.67 2.01 -0.34 1.02 0 0 Z " fill="#E38154" transform="translate(85,159)"/>
<path d="M0 0 C0.99 0.33 1.98 0.66 3 1 C2.04882866 2.1725131 1.08882991 3.33787015 0.125 4.5 C-0.67550781 5.47453125 -0.67550781 5.47453125 -1.4921875 6.46875 C-1.98976563 6.9740625 -2.48734375 7.479375 -3 8 C-3.66 8 -4.32 8 -5 8 C-5.28875 8.804375 -5.5775 9.60875 -5.875 10.4375 C-7 13 -7 13 -9 14 C-9 13.01 -9 12.02 -9 11 C-8.34 11 -7.68 11 -7 11 C-7 9.35 -7 7.7 -7 6 C-6.01 6.33 -5.02 6.66 -4 7 C-3.566875 5.5459375 -3.566875 5.5459375 -3.125 4.0625 C-2 1 -2 1 0 0 Z " fill="#E59570" transform="translate(280,235)"/>
<path d="M0 0 C0.99 0.33 1.98 0.66 3 1 C-0.75 4 -0.75 4 -3 4 C-3 4.66 -3 5.32 -3 6 C-4.98 6.66 -6.96 7.32 -9 8 C-9 8.66 -9 9.32 -9 10 C-10.32 10.33 -11.64 10.66 -13 11 C-11.8759417 7.74023094 -11.07187022 7.03813522 -7.9375 5.375 C-6.968125 4.92125 -5.99875 4.4675 -5 4 C-4.67 3.34 -4.34 2.68 -4 2 C-2.68 2 -1.36 2 0 2 C0 1.34 0 0.68 0 0 Z " fill="#E7966F" transform="translate(205,321)"/>
<path d="M0 0 C0.33 0.99 0.66 1.98 1 3 C0.01 3.33 -0.98 3.66 -2 4 C-2.33 5.155 -2.66 6.31 -3 7.5 C-3.33 8.655 -3.66 9.81 -4 11 C-4.99 11.33 -5.98 11.66 -7 12 C-7.99 13.485 -7.99 13.485 -9 15 C-9.66 14.67 -10.32 14.34 -11 14 C-8 9.5 -8 9.5 -5 5 C-4.34 5 -3.68 5 -3 5 C-2.690625 4.360625 -2.38125 3.72125 -2.0625 3.0625 C-1 1 -1 1 0 0 Z " fill="#E99E7A" transform="translate(219,250)"/>
<path d="M0 0 C4.97093824 0.41153737 9.44508386 0.79600832 14 3 C11.08235 4.9451 9.37462715 5.45276317 6 6 C5.67 5.01 5.34 4.02 5 3 C2.49552484 1.78130071 2.49552484 1.78130071 0 1 C0 0.67 0 0.34 0 0 Z " fill="#E88D62" transform="translate(165,148)"/>
<path d="M0 0 C1.33333333 0.33333333 2.66666667 0.66666667 4 1 C5.051875 1.2475 5.051875 1.2475 6.125 1.5 C8 2 8 2 10 3 C10.625 5.5625 10.625 5.5625 11 8 C7.43770549 8 6.58890321 7.23890991 3.8125 5.125 C3.09707031 4.59132813 2.38164062 4.05765625 1.64453125 3.5078125 C1.10183594 3.01023437 0.55914062 2.51265625 0 2 C0 1.34 0 0.68 0 0 Z " fill="#E9946F" transform="translate(274,310)"/>
<path d="M0 0 C1.98 0.99 1.98 0.99 4 2 C4 2.66 4 3.32 4 4 C4.66 4 5.32 4 6 4 C7.2890625 5.53125 7.2890625 5.53125 8.625 7.5 C9.07101563 8.1496875 9.51703125 8.799375 9.9765625 9.46875 C10.48316406 10.22671875 10.48316406 10.22671875 11 11 C9.35 11.33 7.7 11.66 6 12 C5.7525 11.278125 5.505 10.55625 5.25 9.8125 C3.89191349 6.75680536 2.09616287 4.58526754 0 2 C0 1.34 0 0.68 0 0 Z " fill="#E79169" transform="translate(207,168)"/>
<path d="M0 0 C0.66 0 1.32 0 2 0 C2 0.99 2 1.98 2 3 C1.2575 3.28875 0.515 3.5775 -0.25 3.875 C-4.93542484 5.49368005 -4.93542484 5.49368005 -8 9 C-10.4375 9.75 -10.4375 9.75 -13 10 C-13.66 9.34 -14.32 8.68 -15 8 C-13.06629769 6.99267601 -11.12789694 5.99436712 -9.1875 5 C-8.10855469 4.443125 -7.02960938 3.88625 -5.91796875 3.3125 C-3 2 -3 2 0 2 C0 1.34 0 0.68 0 0 Z " fill="#EBA584" transform="translate(176,294)"/>
<path d="M0 0 C-5.625 3 -5.625 3 -9 3 C-9 3.66 -9 4.32 -9 5 C-13.1196377 6.29243536 -16.66831683 7.26252625 -21 7 C-17.46588679 4.87953208 -14.05606165 4.46800711 -10 4 C-9.67 3.01 -9.34 2.02 -9 1 C-3.79245283 -1.26415094 -3.79245283 -1.26415094 0 0 Z " fill="#F0B395" transform="translate(408,337)"/>
<path d="M0 0 C2.04119788 1.61594832 4.04072937 3.2856382 6 5 C6 5.66 6 6.32 6 7 C7.32 7.66 8.64 8.32 10 9 C10 9.99 10 10.98 10 12 C8.02 10.68 6.04 9.36 4 8 C3.01 8.495 3.01 8.495 2 9 C0.50178941 5.62902617 0 3.79557881 0 0 Z " fill="#E89F7A" transform="translate(289,269)"/>
<path d="M0 0 C0.66 0 1.32 0 2 0 C0.97907757 5.51298111 -1.96566451 9.24389454 -6 13 C-6.99 12.67 -7.98 12.34 -9 12 C-7.625 10 -7.625 10 -6 8 C-5.34 8 -4.68 8 -4 8 C-3.566875 6.8553125 -3.566875 6.8553125 -3.125 5.6875 C-2 3 -2 3 0 0 Z " fill="#EAA076" transform="translate(244,217)"/>
<path d="M0 0 C-0.33 0.66 -0.66 1.32 -1 2 C-3.64860427 2.59355614 -6.29197322 2.74209269 -9 3 C-9 3.66 -9 4.32 -9 5 C-12.6441774 7.4294516 -14.71241272 7.16179575 -19 7 C-19 6.67 -19 6.34 -19 6 C-17.02 6 -15.04 6 -13 6 C-13 5.01 -13 4.02 -13 3 C-4.57142857 -0.42857143 -4.57142857 -0.42857143 0 0 Z " fill="#E99167" transform="translate(113,148)"/>
<path d="M0 0 C0.66 0.33 1.32 0.66 2 1 C1.0479279 2.00596297 0.08812654 3.00461563 -0.875 4 C-1.40867188 4.556875 -1.94234375 5.11375 -2.4921875 5.6875 C-4 7 -4 7 -6 7 C-6 7.99 -6 8.98 -6 10 C-6.99 10 -7.98 10 -9 10 C-8.67 8.35 -8.34 6.7 -8 5 C-6.35 4.67 -4.7 4.34 -3 4 C-2.67 3.01 -2.34 2.02 -2 1 C-1.34 0.67 -0.68 0.34 0 0 Z " fill="#E79A79" transform="translate(217,311)"/>
<path d="M0 0 C2 2 2 2 2 6 C-0.64738916 7.4606285 -1.89448334 8 -5 8 C-3.8141763 4.62496331 -2.72426311 2.35277269 0 0 Z " fill="#E48863" transform="translate(275,253)"/>
<path d="M0 0 C0.99 0 1.98 0 3 0 C3 1.65 3 3.3 3 5 C3.66 5 4.32 5 5 5 C5 5.66 5 6.32 5 7 C5.99 7.33 6.98 7.66 8 8 C7.67 9.65 7.34 11.3 7 13 C6.34 13 5.68 13 5 13 C4.35309078 11.3962669 3.70751236 9.79199694 3.0625 8.1875 C2.70285156 7.29417969 2.34320313 6.40085938 1.97265625 5.48046875 C1.26386514 3.6729091 0.6139753 1.84192591 0 0 Z " fill="#E7936E" transform="translate(196,211)"/>
<path d="M0 0 C3.96 0 7.92 0 12 0 C12 0.66 12 1.32 12 2 C12.99 2 13.98 2 15 2 C15 2.66 15 3.32 15 4 C9.76119922 3.44854729 5.02649303 2.57077907 0 1 C0 0.67 0 0.34 0 0 Z " fill="#EEA283" transform="translate(365,185)"/>
<path d="M0 0 C5.77378925 0.4811491 9.95859836 2.18467181 15 5 C15 5.33 15 5.66 15 6 C13.02 6 11.04 6 9 6 C9 5.01 9 4.02 9 3 C6.03 2.67 3.06 2.34 0 2 C0 1.34 0 0.68 0 0 Z " fill="#EBA484" transform="translate(389,151)"/>
<path d="M0 0 C0.99 0.495 0.99 0.495 2 1 C1.01 1.495 1.01 1.495 0 2 C0 1.34 0 0.68 0 0 Z M5 5 C5.875 7.1875 5.875 7.1875 6 9 C5.01 9 4.02 9 3 9 C3 8.34 3 7.68 3 7 C2.4225 6.71125 1.845 6.4225 1.25 6.125 C-0.83333333 5.08333333 -2.91666667 4.04166667 -5 3 C-0.94628692 1.28496754 1.45371784 2.71461816 5 5 Z " fill="#E76A35" transform="translate(168,181)"/>
<path d="M0 0 C1.1055189 0.93590504 2.20935453 1.87379858 3.3125 2.8125 C3.92738281 3.33457031 4.54226563 3.85664063 5.17578125 4.39453125 C6.85424679 5.87172469 8.43882034 7.40039131 10 9 C7 10 7 10 4 9 C3.66666667 7.66666667 3.33333333 6.33333333 3 5 C2.01 4.67 1.02 4.34 0 4 C0 2.68 0 1.36 0 0 Z " fill="#EA9C75" transform="translate(300,280)"/>
<path d="M0 0 C0.99 0.33 1.98 0.66 3 1 C1.89847594 2.43952597 0.7936696 3.87654071 -0.3125 5.3125 C-0.92738281 6.11300781 -1.54226563 6.91351563 -2.17578125 7.73828125 C-3.69916307 9.62701374 -5.24434407 11.33077636 -7 13 C-6.45276317 9.62537285 -5.9451 7.91765 -4 5 C-3.34 5 -2.68 5 -2 5 C-2 4.34 -2 3.68 -2 3 C-1.34 3 -0.68 3 0 3 C0 2.01 0 1.02 0 0 Z " fill="#E89F78" transform="translate(262,256)"/>
<path d="M0 0 C3.71888239 0.50712033 6.73454239 1.11608215 10 3 C9.67 4.32 9.34 5.64 9 7 C7.4972763 6.02501855 5.99788037 5.04490611 4.5 4.0625 C3.6646875 3.51722656 2.829375 2.97195313 1.96875 2.41015625 C1.3190625 1.94480469 0.669375 1.47945313 0 1 C0 0.67 0 0.34 0 0 Z " fill="#E68D68" transform="translate(285,319)"/>
<path d="M0 0 C0.66 0 1.32 0 2 0 C0.5682479 5.01113235 -1.98445693 6.94469549 -6 10 C-5.67 7.69 -5.34 5.38 -5 3 C-3.68 3 -2.36 3 -1 3 C-0.67 2.01 -0.34 1.02 0 0 Z " fill="#EA946D" transform="translate(217,239)"/>
<path d="M0 0 C6.32258065 -0.36476427 6.32258065 -0.36476427 9.4375 1.3125 C11 3 11 3 11 6 C10.01 6 9.02 6 8 6 C8 5.34 8 4.68 8 4 C7.05125 3.71125 6.1025 3.4225 5.125 3.125 C2 2 2 2 0 0 Z " fill="#E99A74" transform="translate(171,190)"/>
<path d="M0 0 C-9.88924051 5.14240506 -9.88924051 5.14240506 -13.4375 4.6875 C-13.953125 4.460625 -14.46875 4.23375 -15 4 C-14.01 4 -13.02 4 -12 4 C-12 3.34 -12 2.68 -12 2 C-10.75579353 1.4654744 -9.50429064 0.94791389 -8.25 0.4375 C-7.55390625 0.14746094 -6.8578125 -0.14257812 -6.140625 -0.44140625 C-3.69987216 -1.07831803 -2.3596345 -0.80248831 0 0 Z " fill="#EB9C79" transform="translate(323,152)"/>
<path d="M0 0 C2.46528135 0.39064415 3.73307988 0.73239371 5.51953125 2.5234375 C6.15955078 3.43996094 6.15955078 3.43996094 6.8125 4.375 C7.25207031 4.98085938 7.69164062 5.58671875 8.14453125 6.2109375 C9 8 9 8 8 11 C6.66072279 9.54712339 5.32873153 8.08752741 4 6.625 C3.2575 5.81289063 2.515 5.00078125 1.75 4.1640625 C0 2 0 2 0 0 Z " fill="#E9A07E" transform="translate(256,291)"/>
<path d="M0 0 C0.99 0 1.98 0 3 0 C3 0.99 3 1.98 3 3 C3.66 3 4.32 3 5 3 C5.33 5.64 5.66 8.28 6 11 C3.22017379 9.6100869 3.12536659 7.81341647 2 5 C1.34 4.67 0.68 4.34 0 4 C0 2.68 0 1.36 0 0 Z " fill="#E28B61" transform="translate(451,209)"/>
<path d="M0 0 C0.33 0.66 0.66 1.32 1 2 C-0.20697532 5.40147591 -1.93504686 7.14245264 -5 9 C-5.99 9 -6.98 9 -8 9 C-8 8.34 -8 7.68 -8 7 C-6.25 5.2734375 -6.25 5.2734375 -4 3.375 C-3.2575 2.74335938 -2.515 2.11171875 -1.75 1.4609375 C-1.1725 0.97882813 -0.595 0.49671875 0 0 Z " fill="#EAA381" transform="translate(67,170)"/>
<path d="M0 0 C0.66 0 1.32 0 2 0 C1.32942834 2.93375101 0.5040235 4.61941083 -1.9140625 6.4453125 C-3.91732182 7.6840771 -5.93333449 8.87054327 -8 10 C-7.34 8.68 -6.68 7.36 -6 6 C-5.34 6 -4.68 6 -4 6 C-3.34 4.68 -2.68 3.36 -2 2 C-1.34 2 -0.68 2 0 2 C0 1.34 0 0.68 0 0 Z " fill="#ECA485" transform="translate(289,169)"/>
<path d="M0 0 C1.65 0 3.3 0 5 0 C5 0.99 5 1.98 5 3 C6.98 3 8.96 3 11 3 C8.58278807 4.52194825 7.26487742 5.01261321 4.375 4.875 C2 4 2 4 0.6875 1.9375 C0.460625 1.298125 0.23375 0.65875 0 0 Z " fill="#E46834" transform="translate(393,154)"/>
<path d="M0 0 C-3.22448147 2.14965431 -3.79930965 2.22152284 -7.44921875 1.9765625 C-8.29677734 1.925 -9.14433594 1.8734375 -10.01757812 1.8203125 C-10.89865234 1.75585938 -11.77972656 1.69140625 -12.6875 1.625 C-13.58017578 1.56828125 -14.47285156 1.5115625 -15.39257812 1.453125 C-17.59587413 1.31173702 -19.79801539 1.16034022 -22 1 C-22 0.67 -22 0.34 -22 0 C-19.08365878 -0.19502282 -16.16720455 -0.38129328 -13.25 -0.5625 C-12.0125 -0.64661133 -12.0125 -0.64661133 -10.75 -0.73242188 C-9.95078125 -0.78076172 -9.1515625 -0.82910156 -8.328125 -0.87890625 C-7.5949707 -0.9260376 -6.86181641 -0.97316895 -6.10644531 -1.02172852 C-3.91642774 -0.99913793 -2.09512813 -0.61487456 0 0 Z " fill="#EC8758" transform="translate(153,308)"/>
<path d="M0 0 C5.41798672 0.69165788 10.6822785 1.75799248 16 3 C16 3.33 16 3.66 16 4 C12.37 4 8.74 4 5 4 C5 3.34 5 2.68 5 2 C3.35 2 1.7 2 0 2 C0 1.34 0 0.68 0 0 Z " fill="#EA9E85" transform="translate(336,304)"/>
<path d="M0 0 C1.32 0.33 2.64 0.66 4 1 C4 3 4 3 2.625 4.4375 C2.08875 4.953125 1.5525 5.46875 1 6 C0.01 7.485 0.01 7.485 -1 9 C-1.66 9 -2.32 9 -3 9 C-2.30058404 5.85262818 -1.23921302 2.97411124 0 0 Z " fill="#E98F6E" transform="translate(222,230)"/>
<path d="M0 0 C0 2 0 2 -2.125 4.625 C-5 7 -5 7 -8.3125 7.3125 C-9.199375 7.209375 -10.08625 7.10625 -11 7 C-10 5 -10 5 -6.9375 3.875 C-5.4834375 3.441875 -5.4834375 3.441875 -4 3 C-4 2.34 -4 1.68 -4 1 C-2 0 -2 0 0 0 Z " fill="#EDA383" transform="translate(308,157)"/>
<path d="M0 0 C4.41299538 1.20354419 7.08112557 2.43248681 10 6 C10.33 6.99 10.66 7.98 11 9 C10.01 8.67 9.02 8.34 8 8 C8 7.34 8 6.68 8 6 C7.01 6 6.02 6 5 6 C3.0750353 4.17806158 1.62464469 2.10764717 0 0 Z " fill="#EDAD8B" transform="translate(58,315)"/>
<path d="M0 0 C0.66 0 1.32 0 2 0 C0.68938409 4.23429756 -0.94356259 8.07407404 -3 12 C-3.33 12 -3.66 12 -4 12 C-4.50130606 6.73628638 -3.31168629 4.0909066 0 0 Z " fill="#ECA07C" transform="translate(451,288)"/>
<path d="M0 0 C0.98120464 3.05263664 0.98120464 4.94736336 0 8 C-0.66 8 -1.32 8 -2 8 C-2.33 9.32 -2.66 10.64 -3 12 C-3 9.03 -3 6.06 -3 3 C-2.34 3 -1.68 3 -1 3 C-0.67 2.01 -0.34 1.02 0 0 Z " fill="#E8956D" transform="translate(456,276)"/>
<path d="M0 0 C0.66 0.33 1.32 0.66 2 1 C1.34 1.66 0.68 2.32 0 3 C-0.268125 3.825 -0.53625 4.65 -0.8125 5.5 C-2 8 -2 8 -4.625 9.3125 C-5.40875 9.539375 -6.1925 9.76625 -7 10 C-6.67 9.01 -6.34 8.02 -6 7 C-5.34 7 -4.68 7 -4 7 C-3.71125 6.21625 -3.4225 5.4325 -3.125 4.625 C-2 2 -2 2 0 0 Z " fill="#F0AE90" transform="translate(259,271)"/>
<path d="M0 0 C0.99 0 1.98 0 3 0 C2.67 0.99 2.34 1.98 2 3 C1.34 3 0.68 3 0 3 C0 4.65 0 6.3 0 8 C-0.99 8.33 -1.98 8.66 -3 9 C-2.5020163 5.26512223 -2.12508244 3.18762365 0 0 Z " fill="#E06D3B" transform="translate(85,200)"/>
<path d="M0 0 C-3.6125362 1.84827434 -7.2089881 3.55049545 -11 5 C-10.375 2.5625 -10.375 2.5625 -9 0 C-5.40643641 -1.0704232 -3.5731613 -1.19105377 0 0 Z " fill="#E79D77" transform="translate(110,188)"/>
<path d="M0 0 C3.11547441 0.67883043 5.85137721 1.74106902 8.75 3.0625 C9.54921875 3.42472656 10.3484375 3.78695313 11.171875 4.16015625 C11.77515625 4.43730469 12.3784375 4.71445312 13 5 C13 5.33 13 5.66 13 6 C10.03 5.67 7.06 5.34 4 5 C4 4.34 4 3.68 4 3 C2.68 2.67 1.36 2.34 0 2 C0 1.34 0 0.68 0 0 Z " fill="#E99F7D" transform="translate(321,297)"/>
<path d="M0 0 C0.66 0 1.32 0 2 0 C1.34 2.97 0.68 5.94 0 9 C-1.32 8.67 -2.64 8.34 -4 8 C-4 7.34 -4 6.68 -4 6 C-3.34 6 -2.68 6 -2 6 C-1.34 4.02 -0.68 2.04 0 0 Z " fill="#E8936B" transform="translate(52,186)"/>
<path d="M0 0 C1.32 0.66 2.64 1.32 4 2 C3.67 2.66 3.34 3.32 3 4 C3.99 4.33 4.98 4.66 6 5 C4.25 5.75 4.25 5.75 2 6 C-0.25 4.0625 -0.25 4.0625 -2 2 C-1.34 1.34 -0.68 0.68 0 0 Z " fill="#E58C5F" transform="translate(307,330)"/>
<path d="M0 0 C-2.64 1.98 -5.28 3.96 -8 6 C-8.66 5.67 -9.32 5.34 -10 5 C-7.56198347 0.24586777 -7.56198347 0.24586777 -5 -0.875 C-3 -1 -3 -1 0 0 Z " fill="#EDA085" transform="translate(426,326)"/>
<path d="M0 0 C4.455 0.99 4.455 0.99 9 2 C9 3.32 9 4.64 9 6 C7.68 5.67 6.36 5.34 5 5 C5 4.34 5 3.68 5 3 C2.525 2.01 2.525 2.01 0 1 C0 0.67 0 0.34 0 0 Z " fill="#EA9770" transform="translate(71,326)"/>
<path d="M0 0 C0.66 0.99 1.32 1.98 2 3 C1.01 3.33 0.02 3.66 -1 4 C-1.73323796 6.01508358 -1.73323796 6.01508358 -2 8 C-3.32 7.67 -4.64 7.34 -6 7 C-4.02 4.69 -2.04 2.38 0 0 Z " fill="#EC9F78" transform="translate(197,276)"/>
<path d="M0 0 C0.33 0.66 0.66 1.32 1 2 C1.66 2.2475 2.32 2.495 3 2.75 C5 4 5 4 5.75 7.125 C5.8325 8.07375 5.915 9.0225 6 10 C5.34 10 4.68 10 4 10 C3.34 8.02 2.68 6.04 2 4 C1.34 4 0.68 4 0 4 C0 2.68 0 1.36 0 0 Z " fill="#E89271" transform="translate(447,199)"/>
<path d="M0 0 C2.64 0.33 5.28 0.66 8 1 C8 1.33 8 1.66 8 2 C5.125 2.125 5.125 2.125 2 2 C1.34 1.34 0.68 0.68 0 0 Z M-2 2 C-0.68 2 0.64 2 2 2 C1.67 3.32 1.34 4.64 1 6 C0.01 5.67 -0.98 5.34 -2 5 C-2 4.01 -2 3.02 -2 2 Z " fill="#E6652F" transform="translate(114,306)"/>
<path d="M0 0 C3.11198065 1.49836105 6.0534615 3.19933758 9 5 C7.3125 5.6875 7.3125 5.6875 5 6 C2.25 4.75 2.25 4.75 0 3 C0 2.01 0 1.02 0 0 Z " fill="#E89B78" transform="translate(310,289)"/>
<path d="M0 0 C0.99 0.99 1.98 1.98 3 3 C1.74458443 5.51083114 0.49936512 5.87125446 -2 7 C-2 5.35 -2 3.7 -2 2 C-1.34 2 -0.68 2 0 2 C0 1.34 0 0.68 0 0 Z M4 1 C4.66 1.66 5.32 2.32 6 3 C5.01 2.67 4.02 2.34 3 2 C3.33 1.67 3.66 1.34 4 1 Z " fill="#E98C60" transform="translate(410,281)"/>
<path d="M0 0 C1.98 0.99 1.98 0.99 4 2 C4 2.66 4 3.32 4 4 C7.3 4 10.6 4 14 4 C14 4.33 14 4.66 14 5 C10.04 5 6.08 5 2 5 C2 4.34 2 3.68 2 3 C1.34 3 0.68 3 0 3 C0 2.01 0 1.02 0 0 Z " fill="#D46F42" transform="translate(416,222)"/>
<path d="M0 0 C1.18414294 3.55242882 0.69535532 4.69830562 -0.4375 8.1875 C-0.72496094 9.08855469 -1.01242188 9.98960937 -1.30859375 10.91796875 C-1.53675781 11.60503906 -1.76492187 12.29210937 -2 13 C-4.09375 9.3828125 -4.09375 9.3828125 -3.25 5.9375 C-2 3 -2 3 0 0 Z " fill="#F0B08D" transform="translate(77,219)"/>
<path d="M0 0 C5.75 1.875 5.75 1.875 8 3 C8 3.66 8 4.32 8 5 C8.99 5.33 9.98 5.66 11 6 C10.01 6.495 10.01 6.495 9 7 C6.8359375 6.00390625 6.8359375 6.00390625 4.375 4.5625 C3.55773437 4.08941406 2.74046875 3.61632812 1.8984375 3.12890625 C1.27195313 2.75636719 0.64546875 2.38382813 0 2 C0 1.34 0 0.68 0 0 Z " fill="#E9A681" transform="translate(196,161)"/>
<path d="M0 0 C2.475 0.495 2.475 0.495 5 1 C5 1.66 5 2.32 5 3 C6.32 3.66 7.64 4.32 9 5 C6.36 4.67 3.72 4.34 1 4 C0.67 2.68 0.34 1.36 0 0 Z " fill="#EB9E80" transform="translate(404,157)"/>
<path d="M0 0 C0.66 0 1.32 0 2 0 C1.8125 1.8125 1.8125 1.8125 1 4 C-1.4375 5.8125 -1.4375 5.8125 -4 7 C-4.66 6.67 -5.32 6.34 -6 6 C-4.6875 4 -4.6875 4 -3 2 C-2.01 2 -1.02 2 0 2 C0 1.34 0 0.68 0 0 Z " fill="#E68E69" transform="translate(226,242)"/>
<path d="M0 0 C2 2 2 2 2.375 4.875 C1.92491816 8.62568199 0.87398748 9.66488517 -2 12 C-1.67 10.35 -1.34 8.7 -1 7 C-0.34 7 0.32 7 1 7 C0.67 4.69 0.34 2.38 0 0 Z " fill="#E6A889" transform="translate(237,208)"/>
<path d="M0 0 C1.65 0 3.3 0 5 0 C4.01 1.485 4.01 1.485 3 3 C2.34 3 1.68 3 1 3 C0.34 4.32 -0.32 5.64 -1 7 C-1.66 6.67 -2.32 6.34 -3 6 C-2.01 4.02 -1.02 2.04 0 0 Z " fill="#EA9E7E" transform="translate(309,201)"/>
<path d="M0 0 C2.31 0 4.62 0 7 0 C6.01 0.495 6.01 0.495 5 1 C5 1.66 5 2.32 5 3 C3.35 3.66 1.7 4.32 0 5 C0 3.35 0 1.7 0 0 Z " fill="#E7936E" transform="translate(314,195)"/>
<path d="M0 0 C0.66 0 1.32 0 2 0 C2 0.66 2 1.32 2 2 C2.99 2.33 3.98 2.66 5 3 C6.1875 5.0625 6.1875 5.0625 7 7 C5.0625 6.625 5.0625 6.625 3 6 C2.67 5.34 2.34 4.68 2 4 C1.01 3.34 0.02 2.68 -1 2 C-0.67 1.34 -0.34 0.68 0 0 Z " fill="#E68F6C" transform="translate(433,179)"/>
<path d="M0 0 C0.66 0.33 1.32 0.66 2 1 C-2.75 5.875 -2.75 5.875 -5 7 C-4.1875 4.0625 -4.1875 4.0625 -3 1 C-2.01 0.67 -1.02 0.34 0 0 Z " fill="#EE9F7F" transform="translate(431,318)"/>
<path d="M0 0 C0.33 0 0.66 0 1 0 C1 1.65 1 3.3 1 5 C1.66 5 2.32 5 3 5 C3 7.64 3 10.28 3 13 C2.67 13 2.34 13 2 13 C0.24252386 8.49646738 -0.19294408 4.82360189 0 0 Z " fill="#DF6C36" transform="translate(36,260)"/>
<path d="M0 0 C1.32 0 2.64 0 4 0 C4 0.66 4 1.32 4 2 C3.34 2 2.68 2 2 2 C1.731875 2.61875 1.46375 3.2375 1.1875 3.875 C0 6 0 6 -3 8 C-2.690625 7.236875 -2.38125 6.47375 -2.0625 5.6875 C-1.32106407 3.81210323 -0.63771783 1.91315348 0 0 Z " fill="#E3906C" transform="translate(301,209)"/>
<path d="M0 0 C1.32 0.33 2.64 0.66 4 1 C4 1.99 4 2.98 4 4 C4.66 4 5.32 4 6 4 C6 5.32 6 6.64 6 8 C5.34 8 4.68 8 4 8 C2.68 5.36 1.36 2.72 0 0 Z " fill="#EAA586" transform="translate(190,203)"/>
<path d="M0 0 C0 3.16880694 -0.2058242 4.43689172 -2 7 C-4.625 7.75 -4.625 7.75 -7 8 C-7 7.34 -7 6.68 -7 6 C-5.46875 4.4921875 -5.46875 4.4921875 -3.5 2.875 C-2.8503125 2.33617187 -2.200625 1.79734375 -1.53125 1.2421875 C-1.0259375 0.83226562 -0.520625 0.42234375 0 0 Z " fill="#EEA986" transform="translate(266,193)"/>
<path d="M0 0 C-3.24509304 2.03977277 -6.40608886 3.66511872 -10 5 C-10 4.34 -10 3.68 -10 3 C-3.375 -1.125 -3.375 -1.125 0 0 Z " fill="#E08E66" transform="translate(99,194)"/>
<path d="M0 0 C0.99 0.33 1.98 0.66 3 1 C3 1.66 3 2.32 3 3 C3.99 3.33 4.98 3.66 6 4 C6 5.65 6 7.3 6 9 C3.59927045 6.11912454 1.52708963 3.43595166 0 0 Z " fill="#E56330" transform="translate(50,300)"/>
<path d="M0 0 C0.33 1.32 0.66 2.64 1 4 C2.32 4.33 3.64 4.66 5 5 C4.67 5.66 4.34 6.32 4 7 C2.02 6.34 0.04 5.68 -2 5 C-1.34 3.35 -0.68 1.7 0 0 Z " fill="#E36732" transform="translate(299,280)"/>
<path d="M0 0 C1.32 0 2.64 0 4 0 C4 0.66 4 1.32 4 2 C3.34 2 2.68 2 2 2 C1.71125 2.804375 1.4225 3.60875 1.125 4.4375 C0 7 0 7 -2 8 C-1.34 5.36 -0.68 2.72 0 0 Z " fill="#ECA87D" transform="translate(207,250)"/>
<path d="M0 0 C2.5625 2.25 2.5625 2.25 5 5 C4.8125 7.3125 4.8125 7.3125 4 9 C3.67 7.68 3.34 6.36 3 5 C2.01 5 1.02 5 0 5 C0 3.35 0 1.7 0 0 Z " fill="#E3926B" transform="translate(407,206)"/>
<path d="M0 0 C2.3125 0.125 2.3125 0.125 5 1 C6.8125 4.0625 6.8125 4.0625 8 7 C3.8575633 5.61918777 2.67796901 3.40174442 0 0 Z " fill="#ECA17C" transform="translate(182,196)"/>
<path d="M0 0 C0.33 0.66 0.66 1.32 1 2 C-1.97 2.66 -4.94 3.32 -8 4 C-8 3.34 -8 2.68 -8 2 C-5.36 1.34 -2.72 0.68 0 0 Z " fill="#F2AA85" transform="translate(182,336)"/>
<path d="M0 0 C0 0.66 0 1.32 0 2 C-1.95927063 3.7143618 -3.95880212 5.38405168 -6 7 C-5.6875 4.625 -5.6875 4.625 -5 2 C-2 0 -2 0 0 0 Z " fill="#E89F7B" transform="translate(226,303)"/>
<path d="M0 0 C0.66 0.33 1.32 0.66 2 1 C1.34 2.32 0.68 3.64 0 5 C-1.32 4.67 -2.64 4.34 -4 4 C-3.67 3.01 -3.34 2.02 -3 1 C-2.01 0.67 -1.02 0.34 0 0 Z " fill="#E26B37" transform="translate(161,303)"/>
<path d="M0 0 C0 4.0333534 -1.60879918 5.83517538 -4 9 C-4.66 9 -5.32 9 -6 9 C-4.47291037 5.56404834 -2.40072955 2.88087546 0 0 Z " fill="#E99D7D" transform="translate(268,261)"/>
<path d="M0 0 C0.66 0 1.32 0 2 0 C2 0.66 2 1.32 2 2 C2.66 2 3.32 2 4 2 C4 3.65 4 5.3 4 7 C3.34 7 2.68 7 2 7 C0.5393715 4.35261084 0 3.10551666 0 0 Z " fill="#EA9E7A" transform="translate(412,215)"/>
<path d="M0 0 C2.64 0 5.28 0 8 0 C8 0.99 8 1.98 8 3 C5.36 2.67 2.72 2.34 0 2 C0 1.34 0 0.68 0 0 Z " fill="#E26E37" transform="translate(380,188)"/>
</svg>
